<svg width="327" height="56" viewBox="0 0 327 56" fill="none" xmlns="http://www.w3.org/2000/svg">
<path d="M28 0.5H299C314.188 0.5 326.5 12.8122 326.5 28C326.5 43.1878 314.188 55.5 299 55.5H28C12.8122 55.5 0.5 43.1878 0.5 28C0.5 12.8122 12.8122 0.500001 28 0.5Z" fill="white"/>
<path d="M28 0.5H299C314.188 0.5 326.5 12.8122 326.5 28C326.5 43.1878 314.188 55.5 299 55.5H28C12.8122 55.5 0.5 43.1878 0.5 28C0.5 12.8122 12.8122 0.500001 28 0.5Z" stroke="#DCDBE4"/>
<g clip-path="url(#clip0_729_8040)">
<path d="M103.999 22.8235C102.688 23.6471 101.878 25.0588 101.878 26.6275C101.878 28.3922 102.919 30 104.5 30.6667C104.192 31.6863 103.729 32.6275 103.151 33.4902C102.302 34.7059 101.416 35.9608 100.105 35.9608C98.794 35.9608 98.4084 35.1765 96.8663 35.1765C95.3627 35.1765 94.8229 36 93.5892 36C92.3554 36 91.5072 34.8627 90.5434 33.451C89.2711 31.4902 88.5386 29.2157 88.5 26.8235C88.5 22.9412 90.9675 20.8627 93.4349 20.8627C94.7458 20.8627 95.8253 21.7255 96.6349 21.7255C97.406 21.7255 98.6398 20.8235 100.105 20.8235C101.647 20.7843 103.112 21.5294 103.999 22.8235ZM99.4108 19.1765C100.066 18.3922 100.413 17.4118 100.452 16.3922C100.452 16.2745 100.452 16.1176 100.413 16C99.2952 16.1176 98.2542 16.6667 97.5217 17.5294C96.8663 18.2745 96.4807 19.2157 96.4422 20.2353C96.4422 20.3529 96.4422 20.4706 96.4807 20.5882C96.5578 20.5882 96.6735 20.6275 96.7506 20.6275C97.7916 20.549 98.7554 20 99.4108 19.1765Z" fill="black"/>
</g>
<path d="M116.613 20.8867C117.311 20.8867 117.923 21.1152 118.45 21.5723C118.978 22.0293 119.385 22.6855 119.672 23.541C119.959 24.3906 120.105 25.3926 120.111 26.5469C120.105 27.7012 119.956 28.709 119.663 29.5703C119.376 30.4258 118.969 31.085 118.441 31.5479C117.92 32.0049 117.311 32.2305 116.613 32.2246C115.928 32.2305 115.324 32.0049 114.803 31.5479C114.287 31.085 113.889 30.4258 113.607 29.5703C113.326 28.709 113.186 27.7012 113.186 26.5469C113.186 25.3926 113.326 24.3906 113.607 23.541C113.889 22.6855 114.287 22.0293 114.803 21.5723C115.324 21.1152 115.928 20.8867 116.613 20.8867ZM116.613 22.7324C116.279 22.7266 115.989 22.8701 115.743 23.1631C115.497 23.4561 115.31 23.8896 115.181 24.4639C115.052 25.0381 114.99 25.7324 114.996 26.5469C114.99 27.3613 115.052 28.0557 115.181 28.6299C115.31 29.2041 115.497 29.6377 115.743 29.9307C115.989 30.2236 116.279 30.3672 116.613 30.3613C117.146 30.373 117.56 30.0479 117.853 29.3857C118.151 28.7236 118.301 27.7773 118.301 26.5469C118.301 25.3164 118.151 24.3701 117.853 23.708C117.56 23.0459 117.146 22.7207 116.613 22.7324ZM126.738 35.5645H124.857V27.4258H123.17V34.791H121.324V19.9551H123.17V25.8086H124.857V19.6738H126.738V35.5645ZM141.372 21.6074H139.193V24.0156H141.285V25.4922H129.613V24.0156H131.704V21.6074H129.525V20.1309H141.372V21.6074ZM142.708 28.041H128.224V26.4941H142.708V28.041ZM140.898 32.8926H131.863V33.9648H141.337V35.4238H129.947V31.5391H138.982V30.5371H129.929V29.1133H140.898V32.8926ZM137.224 24.0156V21.6074H133.656V24.0156H137.224ZM157.94 33.7188H143.421V32.1016H149.678V29.5176H145.143V24.3145H154.284V22.3457H145.108V20.7637H156.218V25.8613H147.094V27.918H156.587V29.5176H151.612V32.1016H157.94V33.7188ZM177.048 33.7188H162.529V32.1016H168.787V29.5176H164.251V24.3145H173.392V22.3457H164.216V20.7637H175.326V25.8613H166.203V27.918H175.695V29.5176H170.72V32.1016H177.048V33.7188ZM190.364 23.0137C190.364 23.9629 190.352 24.7803 190.329 25.4658C190.311 26.1455 190.262 26.9248 190.179 27.8037C190.097 28.6826 189.966 29.6406 189.784 30.6777L187.798 30.502C187.991 29.5352 188.132 28.6211 188.22 27.7598C188.307 26.8926 188.36 26.1191 188.378 25.4395C188.401 24.7539 188.413 23.9453 188.413 23.0137V22.8027H179.255V21.2207H190.364V23.0137ZM192.21 33.3848H177.725V31.7852H192.21V33.3848ZM206.158 31.1699H204.19V19.6914H206.158V31.1699ZM206.598 35.248H195.647V30.0098H197.615V33.666H206.598V35.248ZM197.492 20.7285C198.289 20.7285 199.013 20.9014 199.663 21.2471C200.314 21.5869 200.826 22.0586 201.201 22.6621C201.576 23.2656 201.764 23.9453 201.764 24.7012C201.764 25.4688 201.576 26.1572 201.201 26.7666C200.826 27.3701 200.314 27.8418 199.663 28.1816C199.013 28.5215 198.289 28.6914 197.492 28.6914C196.69 28.6914 195.96 28.5215 195.304 28.1816C194.653 27.8418 194.141 27.3701 193.766 26.7666C193.391 26.1572 193.203 25.4688 193.203 24.7012C193.203 23.9453 193.391 23.2656 193.766 22.6621C194.141 22.0586 194.653 21.5869 195.304 21.2471C195.96 20.9014 196.69 20.7285 197.492 20.7285ZM197.492 22.4336C197.041 22.4336 196.634 22.5273 196.271 22.7148C195.907 22.9023 195.623 23.1689 195.418 23.5146C195.213 23.8604 195.113 24.2559 195.119 24.7012C195.113 25.1582 195.213 25.5596 195.418 25.9053C195.623 26.251 195.907 26.5176 196.271 26.7051C196.634 26.8926 197.041 26.9863 197.492 26.9863C197.932 26.9863 198.33 26.8926 198.688 26.7051C199.045 26.5176 199.326 26.251 199.531 25.9053C199.742 25.5596 199.848 25.1582 199.848 24.7012C199.848 24.2559 199.742 23.8604 199.531 23.5146C199.326 23.1689 199.045 22.9023 198.688 22.7148C198.33 22.5273 197.932 22.4336 197.492 22.4336ZM220.564 26.002H223.007V27.6191H220.564V35.5645H218.63V19.6738H220.564V26.002ZM217.4 23.6816H208.031V22.1172H211.793V19.9023H213.744V22.1172H217.4V23.6816ZM212.777 24.7188C213.533 24.7188 214.212 24.8799 214.816 25.2021C215.425 25.5186 215.903 25.9609 216.249 26.5293C216.594 27.0977 216.767 27.7422 216.767 28.4629C216.767 29.1836 216.594 29.8281 216.249 30.3965C215.903 30.959 215.425 31.3984 214.816 31.7148C214.212 32.0312 213.533 32.1895 212.777 32.1895C212.009 32.1895 211.321 32.0312 210.711 31.7148C210.102 31.3984 209.625 30.959 209.279 30.3965C208.933 29.8281 208.763 29.1836 208.769 28.4629C208.763 27.7422 208.933 27.0977 209.279 26.5293C209.625 25.9609 210.102 25.5186 210.711 25.2021C211.321 24.8799 212.009 24.7188 212.777 24.7188ZM212.777 26.3184C212.361 26.3184 211.989 26.4062 211.661 26.582C211.338 26.7578 211.086 27.0098 210.905 27.3379C210.723 27.6602 210.632 28.0352 210.632 28.4629C210.632 28.8906 210.723 29.2656 210.905 29.5879C211.086 29.9043 211.338 30.1504 211.661 30.3262C211.989 30.4961 212.361 30.5781 212.777 30.5723C213.181 30.5781 213.542 30.4961 213.858 30.3262C214.18 30.1504 214.432 29.9043 214.614 29.5879C214.801 29.2656 214.898 28.8906 214.904 28.4629C214.898 28.0352 214.801 27.6602 214.614 27.3379C214.432 27.0156 214.18 26.7666 213.858 26.5908C213.542 26.4092 213.181 26.3184 212.777 26.3184ZM236.587 35.5645H234.618V19.6738H236.587V35.5645ZM231.841 21.3613C231.841 23.8867 231.269 26.1045 230.127 28.0146C228.984 29.9189 227.089 31.498 224.44 32.752L223.421 31.1875C225.466 30.2148 227.004 29.0518 228.035 27.6982C229.072 26.3389 229.679 24.7422 229.854 22.9082H224.229V21.3613H231.841Z" fill="#28282F"/>
<defs>
<clipPath id="clip0_729_8040">
<rect width="16" height="24" fill="white" transform="translate(88.5 16)"/>
</clipPath>
</defs>
</svg>
