<svg width="95" height="92" viewBox="0 0 95 92" fill="none" xmlns="http://www.w3.org/2000/svg">
<path d="M52.3801 33.364H32.3019C31.8623 33.3654 31.4283 33.2665 31.0327 33.0749C30.6372 32.8833 30.2905 32.6041 30.0192 32.2585C29.743 31.9096 29.55 31.5024 29.4551 31.0678C29.3601 30.6331 29.3656 30.1826 29.4712 29.7504C31.3217 22.0047 31.3217 13.9324 29.4711 6.18676C29.3656 5.75459 29.3601 5.30406 29.4551 4.86946C29.5501 4.43486 29.743 4.02764 30.0192 3.67877C30.2905 3.33315 30.6371 3.05392 31.0327 2.86235C31.4282 2.67078 31.8623 2.5719 32.3019 2.57326H52.3801C53.0733 2.57525 53.7433 2.82308 54.2708 3.2726C54.7982 3.72213 55.1489 4.34417 55.2603 5.02792C56.5817 13.6045 56.5817 22.3327 55.2603 30.9094C55.1489 31.5931 54.7982 32.2152 54.2708 32.6647C53.7433 33.1142 53.0733 33.362 52.3801 33.364Z" fill="#E9E9EC"/>
<path d="M32.3031 4.08204C32.092 4.08133 31.8836 4.12875 31.6936 4.22068C31.5036 4.31261 31.3371 4.44663 31.2067 4.61256C31.0725 4.78256 30.9788 4.98092 30.9328 5.19255C30.8869 5.40417 30.8898 5.62349 30.9414 5.83381C32.8473 13.811 32.8473 22.1244 30.9415 30.1016C30.8899 30.3118 30.8869 30.5311 30.9328 30.7427C30.9788 30.9543 31.0724 31.1526 31.2066 31.3226C31.337 31.4885 31.5036 31.6227 31.6936 31.7147C31.8836 31.8066 32.092 31.8541 32.3031 31.8533H52.3813C52.7142 31.8535 53.0364 31.7355 53.2904 31.5204C53.5444 31.3054 53.7138 31.0072 53.7684 30.679C55.0663 22.2544 55.0663 13.6809 53.7684 5.25635C53.7138 4.92817 53.5444 4.63 53.2904 4.41495C53.0364 4.1999 52.7142 4.08192 52.3813 4.08204L32.3031 4.08204Z" fill="white"/>
<path d="M48 11.3417H37.4638C37.0633 11.3413 36.6793 11.1821 36.3961 10.8991C36.1129 10.6161 35.9536 10.2323 35.9531 9.83206V9.2421C35.9536 8.84184 36.1129 8.4581 36.3961 8.17508C36.6793 7.89206 37.0633 7.73286 37.4638 7.73242H48C48.4005 7.73286 48.7845 7.89206 49.0677 8.17508C49.351 8.4581 49.5103 8.84184 49.5107 9.2421V9.83207C49.5103 10.2323 49.351 10.6161 49.0677 10.8991C48.7845 11.1821 48.4005 11.3413 48 11.3417Z" fill="#E9E9EC"/>
<path d="M48 18.7968H37.4638C37.0633 18.7964 36.6793 18.6372 36.3961 18.3541C36.1129 18.0711 35.9536 17.6874 35.9531 17.2871V16.6972C35.9536 16.2969 36.1129 15.9132 36.3961 15.6301C36.6793 15.3471 37.0633 15.1879 37.4638 15.1875H48C48.4005 15.1879 48.7845 15.3471 49.0677 15.6301C49.351 15.9132 49.5103 16.2969 49.5107 16.6972V17.2871C49.5103 17.6874 49.351 18.0711 49.0677 18.3541C48.7845 18.6372 48.4005 18.7964 48 18.7968Z" fill="#E9E9EC"/>
<path d="M48 26.2519H37.4638C37.0633 26.2514 36.6793 26.0922 36.3961 25.8092C36.1129 25.5262 35.9536 25.1425 35.9531 24.7422V24.1522C35.9536 23.752 36.1129 23.3683 36.3961 23.0852C36.6793 22.8022 37.0633 22.643 37.4638 22.6426H48C48.4005 22.643 48.7845 22.8022 49.0677 23.0852C49.351 23.3683 49.5103 23.752 49.5107 24.1522V24.7422C49.5103 25.1425 49.351 25.5262 49.0677 25.8092C48.7845 26.0922 48.4005 26.2514 48 26.2519Z" fill="#E9E9EC"/>
<path d="M90.1486 52.4871H70.0705C69.6309 52.4884 69.1968 52.3895 68.8013 52.1979C68.4057 52.0064 68.0591 51.7272 67.7878 51.3816C67.5116 51.0327 67.3186 50.6254 67.2236 50.1908C67.1287 49.7562 67.1342 49.3056 67.2398 48.8734C69.0903 41.1277 69.0902 33.0555 67.2396 25.3098C67.1341 24.8776 67.1287 24.4271 67.2236 23.9925C67.3186 23.5579 67.5115 23.1507 67.7877 22.8018C68.059 22.4562 68.4057 22.177 68.8012 21.9854C69.1968 21.7938 69.6309 21.695 70.0705 21.6963H90.1486C90.8419 21.6983 91.5119 21.9461 92.0393 22.3957C92.5668 22.8452 92.9175 23.4672 93.0289 24.151C94.3503 32.7276 94.3503 41.4558 93.0289 50.0324C92.9175 50.7162 92.5668 51.3382 92.0393 51.7877C91.5119 52.2373 90.8419 52.4851 90.1486 52.4871Z" fill="#E9E9EC"/>
<path d="M70.0717 23.2061C69.8606 23.2054 69.6521 23.2528 69.4621 23.3447C69.2721 23.4366 69.1056 23.5707 68.9753 23.7366C68.841 23.9066 68.7474 24.1049 68.7014 24.3166C68.6554 24.5282 68.6583 24.7475 68.7099 24.9578C70.6158 32.935 70.6159 41.2484 68.7101 49.2256C68.6584 49.4359 68.6555 49.6551 68.7014 49.8667C68.7473 50.0783 68.841 50.2766 68.9752 50.4466C69.1055 50.6126 69.2721 50.7467 69.4621 50.8387C69.6521 50.9307 69.8606 50.9781 70.0717 50.9774H90.1499C90.4828 50.9775 90.8049 50.8595 91.0589 50.6445C91.313 50.4294 91.4823 50.1312 91.5369 49.803C92.8349 41.3785 92.8349 32.805 91.5369 24.3804C91.4823 24.0522 91.313 23.754 91.0589 23.539C90.8049 23.3239 90.4828 23.2059 90.1499 23.2061L70.0717 23.2061Z" fill="white"/>
<path d="M50.1144 74.2514H30.0362C29.5776 74.2528 29.1248 74.1496 28.7121 73.9497C28.2994 73.7498 27.9378 73.4585 27.6547 73.0979C27.3667 72.7342 27.1655 72.3095 27.0664 71.8563C26.9674 71.4031 26.9731 70.9333 27.0832 70.4826C28.929 62.7562 28.929 54.7041 27.083 46.9777C26.973 46.527 26.9673 46.0572 27.0664 45.604C27.1655 45.1508 27.3666 44.7262 27.6547 44.3624C27.9377 44.0019 28.2994 43.7105 28.7121 43.5107C29.1248 43.3108 29.5776 43.2076 30.0362 43.209H50.1144C50.8377 43.2112 51.5367 43.4698 52.0869 43.9389C52.6372 44.4079 53.0029 45.0569 53.1191 45.7703C54.4425 54.3596 54.4425 63.1008 53.1191 71.6901C53.0029 72.4034 52.6372 73.0525 52.0869 73.5215C51.5367 73.9906 50.8377 74.2492 50.1144 74.2514Z" fill="#F0F0F3"/>
<path d="M85.7686 34.2392H75.2324C74.8318 34.2387 74.4478 34.0796 74.1646 33.7965C73.8814 33.5135 73.7221 33.1298 73.7217 32.7295V32.1396C73.7221 31.7393 73.8814 31.3556 74.1646 31.0725C74.4478 30.7895 74.8318 30.6303 75.2324 30.6299H85.7686C86.1691 30.6303 86.5531 30.7895 86.8363 31.0725C87.1195 31.3556 87.2788 31.7393 87.2793 32.1396V32.7295C87.2788 33.1298 87.1195 33.5135 86.8363 33.7965C86.5531 34.0796 86.1691 34.2387 85.7686 34.2392Z" fill="#E9E9EC"/>
<path d="M85.7686 41.6943H75.2324C74.8318 41.6938 74.4478 41.5346 74.1646 41.2516C73.8814 40.9686 73.7221 40.5848 73.7217 40.1846V39.5946C73.7221 39.1944 73.8814 38.8106 74.1646 38.5276C74.4478 38.2446 74.8318 38.0854 75.2324 38.085H85.7686C86.1691 38.0854 86.5531 38.2446 86.8363 38.5276C87.1195 38.8106 87.2788 39.1944 87.2793 39.5946V40.1846C87.2788 40.5848 87.1195 40.9686 86.8363 41.2516C86.5531 41.5346 86.1691 41.6938 85.7686 41.6943Z" fill="#E9E9EC"/>
<path d="M40.133 64.4154C43.3314 64.4154 45.9242 61.8244 45.9242 58.6281C45.9242 55.4319 43.3314 52.8408 40.133 52.8408C36.9346 52.8408 34.3418 55.4319 34.3418 58.6281C34.3418 61.8244 36.9346 64.4154 40.133 64.4154Z" fill="white"/>
<path d="M42.9012 57.8723H40.8869V55.8594C40.8869 55.6592 40.8073 55.4672 40.6657 55.3256C40.524 55.184 40.3319 55.1045 40.1315 55.1045C39.9312 55.1045 39.739 55.184 39.5974 55.3256C39.4557 55.4672 39.3761 55.6592 39.3761 55.8594V57.8723H37.3618C37.1615 57.8723 36.9693 57.9519 36.8277 58.0934C36.686 58.235 36.6064 58.427 36.6064 58.6272C36.6064 58.8274 36.686 59.0194 36.8277 59.161C36.9693 59.3025 37.1615 59.3821 37.3618 59.3821H39.3761V61.395C39.3761 61.5952 39.4557 61.7872 39.5974 61.9288C39.739 62.0704 39.9312 62.1499 40.1315 62.1499C40.3319 62.1499 40.524 62.0704 40.6657 61.9288C40.8073 61.7872 40.8869 61.5952 40.8869 61.395V59.3821H42.9012C43.1016 59.3821 43.2937 59.3025 43.4354 59.161C43.577 59.0194 43.6566 58.8274 43.6566 58.6272C43.6566 58.427 43.577 58.235 43.4354 58.0934C43.2937 57.9519 43.1016 57.8723 42.9012 57.8723Z" fill="#E9E9EC"/>
<path d="M47.4339 5.40941H36.8586C36.5582 5.40907 36.2702 5.28967 36.0578 5.07739C35.8454 4.86512 35.7259 4.57731 35.7256 4.27711V2.26413C35.7259 1.96393 35.8454 1.67613 36.0578 1.46385C36.2702 1.25158 36.5582 1.13217 36.8586 1.13184H47.4339C47.7343 1.13217 48.0223 1.25158 48.2347 1.46385C48.4471 1.67613 48.5666 1.96393 48.5669 2.26413V4.27711C48.5666 4.57731 48.4471 4.86512 48.2347 5.07739C48.0223 5.28967 47.7343 5.40907 47.4339 5.40941Z" fill="#CAC7DA"/>
<path d="M85.7063 24.7844H75.1311C74.8307 24.7841 74.5427 24.6647 74.3303 24.4524C74.1179 24.2401 73.9984 23.9523 73.998 23.6521V21.6391C73.9984 21.3389 74.1179 21.0511 74.3303 20.8389C74.5427 20.6266 74.8307 20.5072 75.1311 20.5068H85.7063C86.0067 20.5072 86.2947 20.6266 86.5072 20.8389C86.7196 21.0511 86.8391 21.3389 86.8394 21.6391V23.6521C86.8391 23.9523 86.7196 24.2401 86.5072 24.4524C86.2947 24.6647 86.0067 24.7841 85.7063 24.7844Z" fill="#CAC7DA"/>
<path d="M21.3149 90.7048L2.77344 83.0063C2.36702 82.839 2.00414 82.5812 1.71241 82.2527C1.42068 81.9241 1.20779 81.5333 1.08994 81.1102C0.968788 80.6821 0.94697 80.232 1.02614 79.7942C1.10532 79.3565 1.2834 78.9425 1.54683 78.5839C6.2296 72.1405 9.32883 64.6861 10.5938 56.8237C10.6623 56.3841 10.8302 55.966 11.0848 55.601C11.3393 55.2361 11.6739 54.934 12.0628 54.7178C12.4461 54.5026 12.8734 54.3777 13.3122 54.3524C13.7511 54.3272 14.1899 54.4023 14.5953 54.5721L33.1368 62.2706C33.7762 62.5383 34.2998 63.024 34.6143 63.6414C34.9288 64.2587 35.0138 64.9676 34.8542 65.6418C32.7815 74.0686 29.4304 82.1288 24.9172 89.5424C24.5518 90.1311 23.9891 90.571 23.3294 90.7839C22.6698 90.9968 21.9559 90.9688 21.3149 90.7048Z" fill="#E9E9EC"/>
<path d="M14.0158 55.9673C13.8211 55.8857 13.6104 55.8496 13.3997 55.8616C13.1889 55.8737 12.9837 55.9336 12.7996 56.0369C12.6104 56.1424 12.4477 56.2896 12.324 56.4674C12.2003 56.6452 12.1188 56.8489 12.0857 57.0629C10.783 65.1603 7.59111 72.8375 2.76841 79.4734C2.63998 79.6477 2.55306 79.8491 2.51425 80.0621C2.47544 80.2751 2.48577 80.4942 2.54445 80.7026C2.60108 80.9058 2.70343 81.0936 2.84357 81.2514C2.98371 81.4091 3.15802 81.5329 3.35324 81.6131L21.8947 89.3117C22.2021 89.4394 22.5449 89.454 22.8621 89.3528C23.1792 89.2516 23.4501 89.0412 23.6265 88.759C28.0597 81.4769 31.3514 73.5596 33.3873 65.2821C33.4629 64.9581 33.421 64.6178 33.269 64.3218C33.117 64.0258 32.8648 63.7934 32.5573 63.6658L14.0158 55.9673Z" fill="white"/>
<path d="M23.8879 73.1032L14.1581 69.0633C13.7884 68.9094 13.4949 68.6151 13.342 68.2452C13.1892 67.8752 13.1894 67.4598 13.3427 67.09L13.5692 66.5452C13.7232 66.1757 14.0177 65.8824 14.3879 65.7297C14.7581 65.5769 15.1738 65.5771 15.5439 65.7303L25.2737 69.7701C25.6434 69.9241 25.9369 70.2183 26.0897 70.5883C26.2426 70.9583 26.2424 71.3737 26.0891 71.7435L25.8626 72.2883C25.7085 72.6578 25.4141 72.951 25.0439 73.1038C24.6737 73.2566 24.2579 73.2564 23.8879 73.1032Z" fill="#9996F2"/>
<path d="M21.0266 79.987L11.2968 75.9471C10.9271 75.7932 10.6336 75.4989 10.4807 75.129C10.3278 74.759 10.3281 74.3435 10.4813 73.9738L10.7078 73.429C10.8619 73.0595 11.1564 72.7662 11.5266 72.6134C11.8968 72.4607 12.3125 72.4609 12.6825 72.6141L22.4124 76.6539C22.7821 76.8079 23.0755 77.1021 23.2284 77.4721C23.3813 77.842 23.3811 78.2575 23.2278 78.6273L23.0013 79.1721C22.8472 79.5416 22.5528 79.8348 22.1826 79.9876C21.8124 80.1404 21.3966 80.1402 21.0266 79.987Z" fill="#9996F2"/>
<path d="M27.7867 63.4285C27.641 63.4284 27.4968 63.4001 27.3618 63.3453L17.5576 59.3841C17.2792 59.2713 17.057 59.0527 16.9397 58.7764C16.8224 58.5 16.8195 58.1884 16.9318 57.91L17.6869 56.0437C17.7995 55.7653 18.0182 55.5431 18.2949 55.4258C18.5715 55.3086 18.8834 55.3059 19.162 55.4185L28.9663 59.3797C29.2446 59.4925 29.4668 59.7111 29.5841 59.9874C29.7015 60.2638 29.7043 60.5753 29.592 60.8538L28.837 62.7201C28.7522 62.9291 28.6069 63.1081 28.4199 63.2343C28.2328 63.3604 28.0124 63.4281 27.7867 63.4285Z" fill="#CAC7DA"/>
</svg>
