<svg width="327" height="56" viewBox="0 0 327 56" fill="none" xmlns="http://www.w3.org/2000/svg">
<rect width="327" height="56" rx="28" fill="#F8E84E"/>
<path d="M88.5 19.5C82.9771 19.5 78.5 23.0301 78.5 27.3846C78.5 30.1999 80.3717 32.6702 83.1873 34.0651C83.0341 34.5934 82.203 37.4636 82.1699 37.689C82.1699 37.689 82.15 37.8585 82.2597 37.9231C82.3694 37.9877 82.4985 37.9375 82.4985 37.9375C82.8131 37.8936 86.1468 35.5518 86.7238 35.1452C87.3003 35.2268 87.8938 35.2692 88.5 35.2692C94.0229 35.2692 98.5 31.7392 98.5 27.3846C98.5 23.0301 94.0229 19.5 88.5 19.5Z" fill="black"/>
<path d="M117.289 21.2383C117.289 22.9844 117.087 24.5576 116.683 25.958C116.278 27.3525 115.549 28.6533 114.494 29.8604C113.445 31.0674 111.986 32.1367 110.117 33.0684L109.045 31.5918C110.393 30.9238 111.494 30.1943 112.35 29.4033C113.211 28.6064 113.879 27.7275 114.354 26.7666L109.414 27.2324L109.168 25.5449L114.942 25.1846C115.142 24.4756 115.273 23.6875 115.338 22.8203H109.994V21.2383H117.289ZM121.473 25.8965H123.828V27.4961H121.473V35.5293H119.521V19.6738H121.473V25.8965ZM132.486 21.2383C132.486 22.9844 132.284 24.5576 131.879 25.958C131.475 27.3525 130.745 28.6533 129.691 29.8604C128.642 31.0674 127.183 32.1367 125.314 33.0684L124.242 31.5918C125.589 30.9238 126.691 30.1943 127.546 29.4033C128.408 28.6064 129.076 27.7275 129.55 26.7666L124.611 27.2324L124.365 25.5449L130.139 25.1846C130.338 24.4756 130.47 23.6875 130.535 22.8203H125.191V21.2383H132.486ZM136.669 25.8965H139.025V27.4961H136.669V35.5293H134.718V19.6738H136.669V25.8965ZM146.645 20.5703C147.776 20.5703 148.79 20.749 149.686 21.1064C150.589 21.4639 151.295 21.9678 151.804 22.6182C152.314 23.2686 152.569 24.0156 152.569 24.8594C152.569 25.6387 152.358 26.333 151.936 26.9424C151.52 27.5518 150.937 28.0439 150.187 28.4189C149.443 28.7881 148.585 29.0225 147.612 29.1221V32.0312H153.94V33.6309H139.421V32.0312H145.678V29.1221C144.712 29.0225 143.856 28.7881 143.112 28.4189C142.368 28.0439 141.788 27.5518 141.372 26.9424C140.956 26.333 140.751 25.6387 140.757 24.8594C140.751 24.0156 141 23.2686 141.504 22.6182C142.013 21.9678 142.717 21.4639 143.613 21.1064C144.509 20.749 145.52 20.5703 146.645 20.5703ZM146.645 22.1523C145.872 22.1465 145.183 22.2549 144.58 22.4775C143.976 22.6943 143.505 23.0107 143.165 23.4268C142.831 23.8369 142.667 24.3145 142.673 24.8594C142.667 25.4219 142.831 25.9111 143.165 26.3271C143.505 26.7373 143.976 27.0537 144.58 27.2764C145.183 27.4932 145.872 27.6016 146.645 27.6016C147.43 27.6016 148.125 27.4932 148.728 27.2764C149.338 27.0537 149.809 26.7373 150.143 26.3271C150.483 25.9111 150.653 25.4219 150.653 24.8594C150.653 24.3086 150.483 23.8281 150.143 23.418C149.803 23.0078 149.329 22.6943 148.719 22.4775C148.116 22.2549 147.425 22.1465 146.645 22.1523ZM169.137 33.7188H154.617V32.1016H160.875V29.5176H156.34V24.3145H165.481V22.3457H156.305V20.7637H167.414V25.8613H158.291V27.918H167.783V29.5176H162.809V32.1016H169.137V33.7188ZM188.245 33.7188H173.725V32.1016H179.983V29.5176H175.448V24.3145H184.589V22.3457H175.413V20.7637H186.522V25.8613H177.399V27.918H186.891V29.5176H181.917V32.1016H188.245V33.7188ZM201.561 23.0137C201.561 23.9629 201.549 24.7803 201.526 25.4658C201.508 26.1455 201.458 26.9248 201.376 27.8037C201.294 28.6826 201.162 29.6406 200.981 30.6777L198.994 30.502C199.188 29.5352 199.328 28.6211 199.416 27.7598C199.504 26.8926 199.557 26.1191 199.574 25.4395C199.598 24.7539 199.61 23.9453 199.61 23.0137V22.8027H190.451V21.2207H201.561V23.0137ZM203.406 33.3848H188.922V31.7852H203.406V33.3848ZM217.355 31.1699H215.386V19.6914H217.355V31.1699ZM217.794 35.248H206.843V30.0098H208.812V33.666H217.794V35.248ZM208.689 20.7285C209.486 20.7285 210.209 20.9014 210.86 21.2471C211.51 21.5869 212.023 22.0586 212.398 22.6621C212.773 23.2656 212.96 23.9453 212.96 24.7012C212.96 25.4688 212.773 26.1572 212.398 26.7666C212.023 27.3701 211.51 27.8418 210.86 28.1816C210.209 28.5215 209.486 28.6914 208.689 28.6914C207.886 28.6914 207.157 28.5215 206.501 28.1816C205.85 27.8418 205.337 27.3701 204.962 26.7666C204.587 26.1572 204.4 25.4688 204.4 24.7012C204.4 23.9453 204.587 23.2656 204.962 22.6621C205.337 22.0586 205.85 21.5869 206.501 21.2471C207.157 20.9014 207.886 20.7285 208.689 20.7285ZM208.689 22.4336C208.238 22.4336 207.831 22.5273 207.467 22.7148C207.104 22.9023 206.82 23.1689 206.615 23.5146C206.41 23.8604 206.31 24.2559 206.316 24.7012C206.31 25.1582 206.41 25.5596 206.615 25.9053C206.82 26.251 207.104 26.5176 207.467 26.7051C207.831 26.8926 208.238 26.9863 208.689 26.9863C209.128 26.9863 209.527 26.8926 209.884 26.7051C210.242 26.5176 210.523 26.251 210.728 25.9053C210.939 25.5596 211.044 25.1582 211.044 24.7012C211.044 24.2559 210.939 23.8604 210.728 23.5146C210.523 23.1689 210.242 22.9023 209.884 22.7148C209.527 22.5273 209.128 22.4336 208.689 22.4336ZM231.761 26.002H234.204V27.6191H231.761V35.5645H229.827V19.6738H231.761V26.002ZM228.597 23.6816H219.227V22.1172H222.989V19.9023H224.94V22.1172H228.597V23.6816ZM223.974 24.7188C224.729 24.7188 225.409 24.8799 226.013 25.2021C226.622 25.5186 227.099 25.9609 227.445 26.5293C227.791 27.0977 227.964 27.7422 227.964 28.4629C227.964 29.1836 227.791 29.8281 227.445 30.3965C227.099 30.959 226.622 31.3984 226.013 31.7148C225.409 32.0312 224.729 32.1895 223.974 32.1895C223.206 32.1895 222.517 32.0312 221.908 31.7148C221.299 31.3984 220.821 30.959 220.475 30.3965C220.13 29.8281 219.96 29.1836 219.966 28.4629C219.96 27.7422 220.13 27.0977 220.475 26.5293C220.821 25.9609 221.299 25.5186 221.908 25.2021C222.517 24.8799 223.206 24.7188 223.974 24.7188ZM223.974 26.3184C223.558 26.3184 223.185 26.4062 222.857 26.582C222.535 26.7578 222.283 27.0098 222.101 27.3379C221.92 27.6602 221.829 28.0352 221.829 28.4629C221.829 28.8906 221.92 29.2656 222.101 29.5879C222.283 29.9043 222.535 30.1504 222.857 30.3262C223.185 30.4961 223.558 30.5781 223.974 30.5723C224.378 30.5781 224.738 30.4961 225.055 30.3262C225.377 30.1504 225.629 29.9043 225.81 29.5879C225.998 29.2656 226.095 28.8906 226.1 28.4629C226.095 28.0352 225.998 27.6602 225.81 27.3379C225.629 27.0156 225.377 26.7666 225.055 26.5908C224.738 26.4092 224.378 26.3184 223.974 26.3184ZM247.783 35.5645H245.815V19.6738H247.783V35.5645ZM243.037 21.3613C243.037 23.8867 242.466 26.1045 241.323 28.0146C240.181 29.9189 238.285 31.498 235.637 32.752L234.617 31.1875C236.662 30.2148 238.2 29.0518 239.232 27.6982C240.269 26.3389 240.875 24.7422 241.051 22.9082H235.426V21.3613H243.037Z" fill="#28282F"/>
</svg>
