<svg width="280" height="120" viewBox="0 0 280 120" fill="none" xmlns="http://www.w3.org/2000/svg">
<g clip-path="url(#clip0_588_7927)">
<path d="M7.83496 105.387C7.83589 104.175 8.31958 103.012 9.17972 102.155C10.0399 101.298 11.2061 100.816 12.422 100.816C13.638 100.816 14.8042 101.298 15.6643 102.155C16.5245 103.012 17.0082 104.175 17.0091 105.387" fill="#E9E9EC"/>
<path d="M12.4218 105.388C12.3889 105.388 12.3574 105.374 12.3342 105.351C12.3109 105.328 12.2979 105.297 12.2979 105.264V102.853C12.2979 102.82 12.3109 102.789 12.3342 102.766C12.3574 102.743 12.3889 102.729 12.4218 102.729C12.4547 102.729 12.4862 102.743 12.5095 102.766C12.5327 102.789 12.5458 102.82 12.5458 102.853V105.264C12.5458 105.297 12.5327 105.328 12.5095 105.351C12.4862 105.374 12.4547 105.388 12.4218 105.388Z" fill="#A7A5B9"/>
<path d="M12.422 104.559C12.3924 104.559 12.3638 104.548 12.3413 104.529L10.8536 103.256C10.8411 103.245 10.8308 103.232 10.8233 103.218C10.8158 103.203 10.8113 103.187 10.81 103.171C10.8087 103.155 10.8106 103.139 10.8156 103.123C10.8207 103.107 10.8288 103.093 10.8395 103.081C10.8501 103.068 10.8632 103.058 10.8778 103.051C10.8924 103.043 10.9083 103.039 10.9247 103.038C10.941 103.037 10.9574 103.039 10.9729 103.044C10.9885 103.049 11.0028 103.057 11.0151 103.068L12.5028 104.341C12.522 104.358 12.5358 104.38 12.5421 104.404C12.5485 104.429 12.5471 104.455 12.5383 104.478C12.5295 104.502 12.5137 104.522 12.4929 104.537C12.4721 104.551 12.4474 104.559 12.422 104.559Z" fill="#A7A5B9"/>
<path d="M21.9678 105.387C21.9687 104.175 22.4524 103.012 23.3125 102.155C24.1727 101.298 25.3389 100.816 26.5548 100.816C27.7708 100.816 28.937 101.298 29.7971 102.155C30.6573 103.012 31.141 104.175 31.1419 105.387" fill="#E9E9EC"/>
<path d="M26.5556 105.388C26.5227 105.388 26.4912 105.374 26.468 105.351C26.4447 105.328 26.4316 105.297 26.4316 105.264V102.853C26.4316 102.82 26.4447 102.789 26.468 102.766C26.4912 102.743 26.5227 102.729 26.5556 102.729C26.5885 102.729 26.62 102.743 26.6433 102.766C26.6665 102.789 26.6796 102.82 26.6796 102.853V105.264C26.6796 105.297 26.6665 105.328 26.6433 105.351C26.62 105.374 26.5885 105.388 26.5556 105.388Z" fill="#A7A5B9"/>
<path d="M26.5549 104.559C26.5253 104.559 26.4967 104.548 26.4742 104.529L24.9865 103.256C24.974 103.245 24.9637 103.232 24.9562 103.218C24.9487 103.203 24.9441 103.188 24.9428 103.171C24.9415 103.155 24.9434 103.139 24.9485 103.123C24.9535 103.107 24.9616 103.093 24.9723 103.081C24.983 103.068 24.996 103.058 25.0106 103.051C25.0253 103.043 25.0412 103.039 25.0576 103.038C25.0739 103.037 25.0903 103.039 25.1058 103.044C25.1214 103.049 25.1357 103.057 25.148 103.068L26.6357 104.342C26.655 104.358 26.6687 104.38 26.675 104.404C26.6814 104.429 26.68 104.455 26.6712 104.478C26.6624 104.502 26.6466 104.522 26.6258 104.537C26.605 104.551 26.5803 104.559 26.5549 104.559Z" fill="#A7A5B9"/>
<path d="M209.719 17.9366C214.589 17.9366 218.537 13.9994 218.537 9.1426C218.537 4.28582 214.589 0.348633 209.719 0.348633C204.849 0.348633 200.9 4.28582 200.9 9.1426C200.9 13.9994 204.849 17.9366 209.719 17.9366Z" fill="#E9E9EC"/>
<path d="M29.0735 115.203C33.501 115.203 37.0903 114.368 37.0903 113.338C37.0903 112.308 33.501 111.473 29.0735 111.473C24.6459 111.473 21.0566 112.308 21.0566 113.338C21.0566 114.368 24.6459 115.203 29.0735 115.203Z" fill="#E9E9EC"/>
<path d="M24.9807 36.7647C27.0832 30.2175 32.2172 25.14 38.3057 22.1201C45.5297 18.5369 53.8308 18.1312 61.6745 19.5258C70.1419 21.0312 78.0557 24.5017 85.7159 28.289C93.2294 32.0038 100.622 35.9263 108.436 38.9962C124.036 45.1161 140.57 48.5315 157.324 49.0947C172.404 49.5964 188.527 47.9487 201.439 39.4965C213.27 31.752 220.798 18.9758 224.719 5.65795C225.221 3.95297 225.668 2.23332 226.058 0.49901C226.172 -0.00195773 225.399 -0.215852 225.285 0.286485C222.122 14.1937 215.378 27.9387 203.854 36.8038C191.39 46.392 175.032 48.6085 159.725 48.3548C142.788 48.0599 126.03 44.8352 110.199 38.8243C102.184 35.7815 94.6208 31.8303 86.9611 28.0158C79.4696 24.285 71.7676 20.7927 63.5298 19.0721C56.0075 17.5009 47.9537 17.4051 40.7011 20.201C34.7291 22.5032 29.2839 26.6067 26.0972 32.2201C25.3202 33.5957 24.687 35.0474 24.2076 36.5521C24.0499 37.0433 24.8237 37.2535 24.9807 36.7647Z" fill="#E9E9EC"/>
<path d="M139.435 97.9805C139.506 97.9805 139.574 97.9524 139.624 97.9025C139.674 97.8525 139.702 97.7847 139.702 97.714C139.702 97.6433 139.674 97.5756 139.624 97.5256C139.574 97.4756 139.506 97.4475 139.435 97.4475H136.896V96.3816H139.435C139.506 96.3816 139.574 96.3535 139.624 96.3036C139.674 96.2536 139.702 96.1858 139.702 96.1151C139.702 96.0444 139.674 95.9767 139.624 95.9267C139.574 95.8767 139.506 95.8486 139.435 95.8486H117.79C117.719 95.8486 117.651 95.8767 117.601 95.9267C117.551 95.9767 117.522 96.0444 117.522 96.1151C117.522 96.1858 117.551 96.2536 117.601 96.3036C117.651 96.3535 117.719 96.3816 117.79 96.3816H120.328V97.4475H117.79C117.719 97.4475 117.651 97.4756 117.601 97.5256C117.551 97.5756 117.522 97.6433 117.522 97.714C117.522 97.7847 117.551 97.8525 117.601 97.9025C117.651 97.9524 117.719 97.9805 117.79 97.9805H120.328V99.0464H117.79C117.719 99.0464 117.651 99.0745 117.601 99.1245C117.551 99.1745 117.522 99.2422 117.522 99.3129C117.522 99.3836 117.551 99.4514 117.601 99.5014C117.651 99.5513 117.719 99.5794 117.79 99.5794H120.328V100.645H118.057C117.915 100.645 117.779 100.701 117.679 100.801C117.579 100.901 117.522 101.037 117.522 101.178C117.522 101.32 117.579 101.455 117.679 101.555C117.779 101.655 117.915 101.711 118.057 101.711H120.219C120.204 101.754 120.195 101.799 120.195 101.845V105.575C120.195 105.681 120.237 105.783 120.312 105.858C120.387 105.933 120.489 105.975 120.596 105.975C120.702 105.975 120.804 105.933 120.879 105.858C120.954 105.783 120.996 105.681 120.996 105.575V101.845C120.996 101.799 120.988 101.754 120.972 101.711H136.253C136.237 101.754 136.229 101.799 136.228 101.845V105.575C136.228 105.681 136.271 105.783 136.346 105.858C136.421 105.933 136.523 105.975 136.629 105.975C136.736 105.975 136.838 105.933 136.913 105.858C136.988 105.783 137.03 105.681 137.03 105.575V101.845C137.03 101.799 137.021 101.754 137.006 101.711H139.168C139.31 101.711 139.446 101.655 139.546 101.555C139.646 101.455 139.702 101.32 139.702 101.178C139.702 101.037 139.646 100.901 139.546 100.801C139.446 100.701 139.31 100.645 139.168 100.645H136.896V99.5794H139.435C139.506 99.5794 139.574 99.5513 139.624 99.5014C139.674 99.4514 139.702 99.3836 139.702 99.3129C139.702 99.2422 139.674 99.1745 139.624 99.1245C139.574 99.0745 139.506 99.0464 139.435 99.0464H136.896V97.9805H139.435ZM120.863 96.3816H136.362V97.4475H120.863V96.3816ZM136.362 100.645H120.863V99.5794H136.362V100.645ZM136.362 99.0464H120.863V97.9805H136.362V99.0464Z" fill="#403F4B"/>
<path d="M57.9336 86.7959C57.9336 82.0895 54.1051 70.9214 49.3823 70.9214C44.6596 70.9214 40.8311 82.0895 40.8311 86.7959C40.8311 89.0575 41.732 91.2265 43.3357 92.8258C44.9394 94.425 47.1144 95.3234 49.3824 95.3234C51.6503 95.3234 53.8254 94.425 55.429 92.8258C57.0327 91.2265 57.9336 89.0575 57.9336 86.7959Z" fill="#CAC7DA"/>
<path d="M55.7959 86.7959C55.7959 82.0895 51.9674 70.9214 47.2446 70.9214C42.5219 70.9214 38.6934 82.0895 38.6934 86.7959C38.6934 89.0575 39.5943 91.2265 41.198 92.8258C42.8017 94.425 44.9767 95.3234 47.2447 95.3234C49.5126 95.3234 51.6877 94.425 53.2913 92.8258C54.895 91.2265 55.7959 89.0575 55.7959 86.7959Z" fill="#E9E9EC"/>
<path d="M47.5114 105.863C47.4405 105.863 47.3725 105.835 47.3224 105.785C47.2723 105.735 47.2441 105.667 47.2441 105.596V81.8417C47.2441 81.771 47.2723 81.7032 47.3224 81.6533C47.3725 81.6033 47.4405 81.5752 47.5114 81.5752C47.5822 81.5752 47.6502 81.6033 47.7003 81.6533C47.7504 81.7032 47.7786 81.771 47.7786 81.8417V105.596C47.7786 105.667 47.7504 105.735 47.7003 105.785C47.6502 105.835 47.5822 105.863 47.5114 105.863Z" fill="#A7A5B9"/>
<path d="M47.5123 85.7358C47.4594 85.7358 47.4078 85.7202 47.3639 85.6909C47.3199 85.6616 47.2857 85.62 47.2655 85.5713C47.2452 85.5226 47.2399 85.4691 47.2502 85.4174C47.2606 85.3657 47.286 85.3182 47.3234 85.2809L50.8181 81.7958C50.8682 81.7459 50.9361 81.7178 51.007 81.7178C51.0779 81.7178 51.1458 81.7459 51.1959 81.7958C51.2461 81.8458 51.2742 81.9136 51.2742 81.9842C51.2742 82.0549 51.2461 82.1227 51.1959 82.1727L47.7012 85.6578C47.6765 85.6826 47.647 85.7022 47.6146 85.7156C47.5822 85.729 47.5474 85.7359 47.5123 85.7358Z" fill="#A7A5B9"/>
<path d="M145.851 105.863C145.78 105.863 145.712 105.835 145.662 105.785C145.612 105.735 145.584 105.667 145.584 105.596V81.8417C145.584 81.771 145.612 81.7032 145.662 81.6533C145.712 81.6033 145.78 81.5752 145.851 81.5752C145.922 81.5752 145.99 81.6033 146.04 81.6533C146.09 81.7032 146.118 81.771 146.118 81.8417V105.596C146.118 105.667 146.09 105.735 146.04 105.785C145.99 105.835 145.922 105.863 145.851 105.863Z" fill="#403F4B"/>
<path d="M174.445 86.7959C174.445 82.0895 170.617 70.9214 165.894 70.9214C161.171 70.9214 157.343 82.0895 157.343 86.7959C157.343 89.0575 158.244 91.2265 159.847 92.8258C161.451 94.425 163.626 95.3234 165.894 95.3234C168.162 95.3234 170.337 94.425 171.941 92.8258C173.544 91.2265 174.445 89.0575 174.445 86.7959Z" fill="#CAC7DA"/>
<path d="M172.308 86.7959C172.308 82.0895 168.479 70.9214 163.756 70.9214C159.034 70.9214 155.205 82.0895 155.205 86.7959C155.205 89.0575 156.106 91.2265 157.71 92.8258C159.313 94.425 161.488 95.3234 163.756 95.3234C166.024 95.3234 168.199 94.425 169.803 92.8258C171.407 91.2265 172.308 89.0575 172.308 86.7959Z" fill="#E9E9EC"/>
<path d="M164.023 105.863C163.952 105.863 163.884 105.835 163.834 105.785C163.784 105.735 163.756 105.667 163.756 105.596V81.8417C163.756 81.771 163.784 81.7032 163.834 81.6533C163.884 81.6033 163.952 81.5752 164.023 81.5752C164.094 81.5752 164.162 81.6033 164.212 81.6533C164.262 81.7032 164.29 81.771 164.29 81.8417V105.596C164.29 105.667 164.262 105.735 164.212 105.785C164.162 105.835 164.094 105.863 164.023 105.863Z" fill="#A7A5B9"/>
<path d="M164.023 85.7358C163.97 85.7358 163.919 85.7202 163.875 85.6909C163.831 85.6616 163.796 85.62 163.776 85.5713C163.756 85.5226 163.751 85.4691 163.761 85.4174C163.771 85.3657 163.797 85.3182 163.834 85.2809L167.329 81.7958C167.379 81.7459 167.447 81.7178 167.518 81.7178C167.589 81.7178 167.657 81.7459 167.707 81.7958C167.757 81.8458 167.785 81.9136 167.785 81.9842C167.785 82.0549 167.757 82.1227 167.707 82.1727L164.212 85.6578C164.187 85.6826 164.158 85.7022 164.125 85.7156C164.093 85.729 164.058 85.7359 164.023 85.7358Z" fill="#A7A5B9"/>
<path d="M75.8375 13.8061H71.5619C71.2431 13.8058 70.9374 13.6793 70.712 13.4545C70.4865 13.2297 70.3597 12.9249 70.3594 12.6069V2.74703C70.3597 2.4291 70.4865 2.12429 70.712 1.89947C70.9374 1.67466 71.2431 1.5482 71.5619 1.54785H75.8375C76.1564 1.5482 76.462 1.67466 76.6875 1.89947C76.9129 2.12429 77.0397 2.4291 77.0401 2.74703V12.6069C77.0397 12.9249 76.9129 13.2297 76.6875 13.4545C76.462 13.6793 76.1564 13.8058 75.8375 13.8061Z" fill="#CAC7DA"/>
<path d="M92.6734 105.743H70.7607C70.1585 105.742 69.5811 105.504 69.1553 105.079C68.7295 104.654 68.4899 104.079 68.4893 103.478V15.2719C68.4899 14.6714 68.7295 14.0957 69.1553 13.671C69.5811 13.2464 70.1585 13.0075 70.7607 13.0068H92.6734C93.2756 13.0075 93.8529 13.2464 94.2788 13.671C94.7046 14.0957 94.9441 14.6714 94.9448 15.2719V103.478C94.9441 104.079 94.7046 104.654 94.2788 105.079C93.8529 105.504 93.2756 105.743 92.6734 105.743Z" fill="#CAC7DA"/>
<path d="M79.5796 105.743H57.6669C57.0647 105.742 56.4874 105.504 56.0615 105.079C55.6357 104.654 55.3962 104.079 55.3955 103.478V15.2719C55.3962 14.6714 55.6357 14.0957 56.0615 13.671C56.4874 13.2464 57.0647 13.0075 57.6669 13.0068H79.5796C80.1818 13.0075 80.7592 13.2464 81.185 13.671C81.6108 14.0957 81.8504 14.6714 81.8511 15.2719V103.478C81.8504 104.079 81.6108 104.654 81.185 105.079C80.7592 105.504 80.1818 105.742 79.5796 105.743Z" fill="#E9E9EC"/>
<path d="M71.8297 13.8061H67.5541C67.2353 13.8058 66.9296 13.6793 66.7042 13.4545C66.4787 13.2297 66.3519 12.9249 66.3516 12.6069V2.74703C66.3519 2.4291 66.4787 2.12429 66.7042 1.89947C66.9296 1.67466 67.2353 1.5482 67.5541 1.54785H71.8297C72.1486 1.5482 72.4542 1.67466 72.6797 1.89947C72.9051 2.12429 73.0319 2.4291 73.0323 2.74703V12.6069C73.0319 12.9249 72.9051 13.2297 72.6797 13.4545C72.4542 13.6793 72.1486 13.8058 71.8297 13.8061Z" fill="#E9E9EC"/>
<path d="M66.2181 32.9931H61.1407C60.9636 32.9929 60.7938 32.9226 60.6686 32.7977C60.5433 32.6728 60.4729 32.5035 60.4727 32.3269V24.5988C60.4729 24.4222 60.5433 24.2529 60.6686 24.128C60.7938 24.0031 60.9636 23.9328 61.1407 23.9326H66.2181C66.3952 23.9328 66.565 24.0031 66.6902 24.128C66.8155 24.2529 66.8859 24.4222 66.8861 24.5988V32.3269C66.8859 32.5035 66.8155 32.6728 66.6902 32.7977C66.565 32.9226 66.3952 32.9929 66.2181 32.9931Z" fill="white"/>
<path d="M76.1048 32.9931H71.0274C70.8503 32.9929 70.6805 32.9226 70.5553 32.7977C70.43 32.6728 70.3596 32.5035 70.3594 32.3269V24.5988C70.3596 24.4222 70.43 24.2529 70.5553 24.128C70.6805 24.0031 70.8503 23.9328 71.0274 23.9326H76.1048C76.2819 23.9328 76.4517 24.0031 76.5769 24.128C76.7022 24.2529 76.7726 24.4222 76.7728 24.5988V32.3269C76.7726 32.5035 76.7022 32.6728 76.5769 32.7977C76.4517 32.9226 76.2819 32.9929 76.1048 32.9931Z" fill="white"/>
<path d="M66.2181 47.1166H61.1407C60.9636 47.1164 60.7938 47.0461 60.6686 46.9213C60.5433 46.7964 60.4729 46.627 60.4727 46.4504V38.7224C60.4729 38.5457 60.5433 38.3764 60.6686 38.2515C60.7938 38.1266 60.9636 38.0564 61.1407 38.0562H66.2181C66.3952 38.0564 66.565 38.1266 66.6902 38.2515C66.8155 38.3764 66.8859 38.5457 66.8861 38.7224V46.4504C66.8859 46.627 66.8155 46.7964 66.6902 46.9213C66.565 47.0461 66.3952 47.1164 66.2181 47.1166Z" fill="white"/>
<path d="M76.1048 47.1166H71.0274C70.8503 47.1164 70.6805 47.0461 70.5553 46.9213C70.43 46.7964 70.3596 46.627 70.3594 46.4504V38.7224C70.3596 38.5457 70.43 38.3764 70.5553 38.2515C70.6805 38.1266 70.8503 38.0564 71.0274 38.0562H76.1048C76.2819 38.0564 76.4517 38.1266 76.5769 38.2515C76.7022 38.3764 76.7726 38.5457 76.7728 38.7224V46.4504C76.7726 46.627 76.7022 46.7964 76.5769 46.9213C76.4517 47.0461 76.2819 47.1164 76.1048 47.1166Z" fill="white"/>
<path d="M66.2181 61.2401H61.1407C60.9636 61.2399 60.7938 61.1697 60.6686 61.0448C60.5433 60.9199 60.4729 60.7506 60.4727 60.5739V52.8459C60.4729 52.6693 60.5433 52.4999 60.6686 52.375C60.7938 52.2501 60.9636 52.1799 61.1407 52.1797H66.2181C66.3952 52.1799 66.565 52.2501 66.6902 52.375C66.8155 52.4999 66.8859 52.6693 66.8861 52.8459V60.5739C66.8859 60.7506 66.8155 60.9199 66.6902 61.0448C66.565 61.1697 66.3952 61.2399 66.2181 61.2401Z" fill="white"/>
<path d="M76.1048 61.2401H71.0274C70.8503 61.2399 70.6805 61.1697 70.5553 61.0448C70.43 60.9199 70.3596 60.7506 70.3594 60.5739V52.8459C70.3596 52.6693 70.43 52.4999 70.5553 52.375C70.6805 52.2501 70.8503 52.1799 71.0274 52.1797H76.1048C76.2819 52.1799 76.4517 52.2501 76.5769 52.375C76.7022 52.4999 76.7726 52.6693 76.7728 52.8459V60.5739C76.7726 60.7506 76.7022 60.9199 76.5769 61.0448C76.4517 61.1697 76.2819 61.2399 76.1048 61.2401Z" fill="white"/>
<path d="M66.2181 75.3642H61.1407C60.9636 75.364 60.7938 75.2937 60.6686 75.1688C60.5433 75.0439 60.4729 74.8746 60.4727 74.6979V66.9699C60.4729 66.7933 60.5433 66.624 60.6686 66.4991C60.7938 66.3742 60.9636 66.3039 61.1407 66.3037H66.2181C66.3952 66.3039 66.565 66.3742 66.6902 66.4991C66.8155 66.624 66.8859 66.7933 66.8861 66.9699V74.6979C66.8859 74.8746 66.8155 75.0439 66.6902 75.1688C66.565 75.2937 66.3952 75.364 66.2181 75.3642Z" fill="white"/>
<path d="M76.1048 75.3642H71.0274C70.8503 75.364 70.6805 75.2937 70.5553 75.1688C70.43 75.0439 70.3596 74.8746 70.3594 74.6979V66.9699C70.3596 66.7933 70.43 66.624 70.5553 66.4991C70.6805 66.3742 70.8503 66.3039 71.0274 66.3037H76.1048C76.2819 66.3039 76.4517 66.3742 76.5769 66.4991C76.7022 66.624 76.7726 66.7933 76.7728 66.9699V74.6979C76.7726 74.8746 76.7022 75.0439 76.5769 75.1688C76.4517 75.2937 76.2819 75.364 76.1048 75.3642Z" fill="white"/>
<path d="M66.2181 89.4877H61.1407C60.9636 89.4875 60.7938 89.4172 60.6686 89.2923C60.5433 89.1674 60.4729 88.9981 60.4727 88.8215V81.0935C60.4729 80.9168 60.5433 80.7475 60.6686 80.6226C60.7938 80.4977 60.9636 80.4274 61.1407 80.4272H66.2181C66.3952 80.4274 66.565 80.4977 66.6902 80.6226C66.8155 80.7475 66.8859 80.9168 66.8861 81.0935V88.8215C66.8859 88.9981 66.8155 89.1674 66.6902 89.2923C66.565 89.4172 66.3952 89.4875 66.2181 89.4877Z" fill="white"/>
<path d="M76.1048 89.4877H71.0274C70.8503 89.4875 70.6805 89.4172 70.5553 89.2923C70.43 89.1674 70.3596 88.9981 70.3594 88.8215V81.0935C70.3596 80.9168 70.43 80.7475 70.5553 80.6226C70.6805 80.4977 70.8503 80.4274 71.0274 80.4272H76.1048C76.2819 80.4274 76.4517 80.4977 76.5769 80.6226C76.7022 80.7475 76.7726 80.9168 76.7728 81.0935V88.8215C76.7726 88.9981 76.7022 89.1674 76.5769 89.2923C76.4517 89.4172 76.2819 89.4875 76.1048 89.4877Z" fill="white"/>
<path d="M186.203 60.4408H181.927C181.608 60.4404 181.303 60.314 181.077 60.0892C180.852 59.8644 180.725 59.5596 180.725 59.2416V53.6455C180.725 53.3275 180.852 53.0227 181.077 52.7979C181.303 52.5731 181.608 52.4466 181.927 52.4463H186.203C186.522 52.4466 186.827 52.5731 187.053 52.7979C187.278 53.0227 187.405 53.3275 187.405 53.6455V59.2416C187.405 59.5596 187.278 59.8644 187.053 60.0892C186.827 60.314 186.522 60.4404 186.203 60.4408Z" fill="#CAC7DA"/>
<path d="M222.279 106.01H200.366C199.764 106.009 199.187 105.77 198.761 105.345C198.335 104.921 198.095 104.345 198.095 103.744V61.3735C198.095 60.773 198.335 60.1972 198.761 59.7726C199.187 59.3479 199.764 59.1091 200.366 59.1084H222.279C222.881 59.1091 223.458 59.3479 223.884 59.7726C224.31 60.1972 224.55 60.773 224.55 61.3735V103.744C224.55 104.345 224.31 104.921 223.884 105.345C223.458 105.77 222.881 106.009 222.279 106.01Z" fill="#CAC7DA"/>
<path d="M209.185 106.01H171.238C170.636 106.009 170.059 105.77 169.633 105.345C169.207 104.921 168.967 104.345 168.967 103.744V61.3735C168.967 60.773 169.207 60.1972 169.633 59.7726C170.059 59.3479 170.636 59.1091 171.238 59.1084H209.185C209.787 59.1091 210.364 59.3479 210.79 59.7726C211.216 60.1972 211.455 60.773 211.456 61.3735V103.744C211.455 104.345 211.216 104.921 210.79 105.345C210.364 105.77 209.787 106.009 209.185 106.01Z" fill="#E9E9EC"/>
<path d="M182.195 60.4408H177.919C177.601 60.4404 177.295 60.314 177.069 60.0892C176.844 59.8644 176.717 59.5596 176.717 59.2416V53.6455C176.717 53.3275 176.844 53.0227 177.069 52.7979C177.295 52.5731 177.601 52.4466 177.919 52.4463H182.195C182.514 52.4466 182.819 52.5731 183.045 52.7979C183.27 53.0227 183.397 53.3275 183.397 53.6455V59.2416C183.397 59.5596 183.27 59.8644 183.045 60.0892C182.819 60.314 182.514 60.4404 182.195 60.4408Z" fill="#E9E9EC"/>
<path d="M187.806 80.0272H182.729C182.551 80.027 182.382 79.9568 182.256 79.8319C182.131 79.707 182.061 79.5377 182.061 79.361V71.633C182.061 71.4564 182.131 71.287 182.256 71.1622C182.382 71.0373 182.551 70.967 182.729 70.9668H187.806C187.983 70.967 188.153 71.0373 188.278 71.1622C188.403 71.287 188.474 71.4564 188.474 71.633V79.361C188.474 79.5377 188.403 79.707 188.278 79.8319C188.153 79.9568 187.983 80.027 187.806 80.0272Z" fill="white"/>
<path d="M197.694 80.0272H192.616C192.439 80.027 192.269 79.9568 192.144 79.8319C192.019 79.707 191.948 79.5377 191.948 79.361V71.633C191.948 71.4564 192.019 71.287 192.144 71.1622C192.269 71.0373 192.439 70.967 192.616 70.9668H197.694C197.871 70.967 198.041 71.0373 198.166 71.1622C198.291 71.287 198.362 71.4564 198.362 71.633V79.361C198.362 79.5377 198.291 79.707 198.166 79.8319C198.041 79.9568 197.871 80.027 197.694 80.0272Z" fill="white"/>
<path d="M187.806 94.1513H182.729C182.551 94.1511 182.382 94.0808 182.256 93.9559C182.131 93.831 182.061 93.6617 182.061 93.4851V85.757C182.061 85.5804 182.131 85.4111 182.256 85.2862C182.382 85.1613 182.551 85.091 182.729 85.0908H187.806C187.983 85.091 188.153 85.1613 188.278 85.2862C188.403 85.4111 188.474 85.5804 188.474 85.757V93.4851C188.474 93.6617 188.403 93.831 188.278 93.9559C188.153 94.0808 187.983 94.1511 187.806 94.1513Z" fill="white"/>
<path d="M197.694 94.1513H192.616C192.439 94.1511 192.269 94.0808 192.144 93.9559C192.019 93.831 191.948 93.6617 191.948 93.4851V85.757C191.948 85.5804 192.019 85.4111 192.144 85.2862C192.269 85.1613 192.439 85.091 192.616 85.0908H197.694C197.871 85.091 198.041 85.1613 198.166 85.2862C198.291 85.4111 198.362 85.5804 198.362 85.757V93.4851C198.362 93.6617 198.291 93.831 198.166 93.9559C198.041 94.0808 197.871 94.1511 197.694 94.1513Z" fill="white"/>
<path d="M279.733 106.143H0.267228C0.196355 106.143 0.128384 106.115 0.078269 106.065C0.0281541 106.015 0 105.947 0 105.876C0 105.806 0.0281541 105.738 0.078269 105.688C0.128384 105.638 0.196355 105.61 0.267228 105.61H279.733C279.804 105.61 279.872 105.638 279.922 105.688C279.972 105.738 280 105.806 280 105.876C280 105.947 279.972 106.015 279.922 106.065C279.872 106.115 279.804 106.143 279.733 106.143Z" fill="#CAC7DA"/>
<path d="M96.9485 115.47H72.0963C72.0255 115.47 71.9575 115.442 71.9074 115.392C71.8573 115.342 71.8291 115.274 71.8291 115.203C71.8291 115.133 71.8573 115.065 71.9074 115.015C71.9575 114.965 72.0255 114.937 72.0963 114.937H96.9485C97.0194 114.937 97.0874 114.965 97.1375 115.015C97.1876 115.065 97.2157 115.133 97.2157 115.203C97.2157 115.274 97.1876 115.342 97.1375 115.392C97.0874 115.442 97.0194 115.47 96.9485 115.47Z" fill="#CAC7DA"/>
<path d="M158.679 115.47H133.827C133.756 115.47 133.688 115.442 133.638 115.392C133.588 115.342 133.56 115.274 133.56 115.203C133.56 115.133 133.588 115.065 133.638 115.015C133.688 114.965 133.756 114.937 133.827 114.937H158.679C158.75 114.937 158.818 114.965 158.868 115.015C158.918 115.065 158.946 115.133 158.946 115.203C158.946 115.274 158.918 115.342 158.868 115.392C158.818 115.442 158.75 115.47 158.679 115.47Z" fill="#CAC7DA"/>
<path d="M220.408 115.47H195.556C195.485 115.47 195.417 115.442 195.367 115.392C195.317 115.342 195.289 115.274 195.289 115.203C195.289 115.133 195.317 115.065 195.367 115.015C195.417 114.965 195.485 114.937 195.556 114.937H220.408C220.479 114.937 220.547 114.965 220.597 115.015C220.648 115.065 220.676 115.133 220.676 115.203C220.676 115.274 220.648 115.342 220.597 115.392C220.547 115.442 220.479 115.47 220.408 115.47Z" fill="#CAC7DA"/>
<path d="M111.112 86.7959C111.112 82.0895 107.284 70.9214 102.561 70.9214C97.8383 70.9214 94.0098 82.0895 94.0098 86.7959C94.0098 89.0575 94.9107 91.2265 96.5144 92.8258C98.1181 94.425 100.293 95.3234 102.561 95.3234C104.829 95.3234 107.004 94.425 108.608 92.8258C110.211 91.2265 111.112 89.0575 111.112 86.7959Z" fill="#CAC7DA"/>
<path d="M108.975 86.7959C108.975 82.0895 105.146 70.9214 100.423 70.9214C95.7006 70.9214 91.8721 82.0895 91.8721 86.7959C91.8721 89.0575 92.773 91.2265 94.3767 92.8258C95.9804 94.425 98.1554 95.3234 100.423 95.3234C102.691 95.3234 104.866 94.425 106.47 92.8258C108.074 91.2265 108.975 89.0575 108.975 86.7959Z" fill="#E9E9EC"/>
<path d="M100.69 105.863C100.619 105.863 100.551 105.835 100.501 105.785C100.451 105.735 100.423 105.667 100.423 105.596V81.8417C100.423 81.771 100.451 81.7032 100.501 81.6533C100.551 81.6033 100.619 81.5752 100.69 81.5752C100.761 81.5752 100.829 81.6033 100.879 81.6533C100.929 81.7032 100.957 81.771 100.957 81.8417V105.596C100.957 105.667 100.929 105.735 100.879 105.785C100.829 105.835 100.761 105.863 100.69 105.863Z" fill="#A7A5B9"/>
<path d="M100.69 85.7358C100.637 85.7358 100.586 85.7202 100.542 85.6909C100.498 85.6616 100.463 85.62 100.443 85.5713C100.423 85.5226 100.418 85.4691 100.428 85.4174C100.438 85.3657 100.464 85.3182 100.501 85.2809L103.996 81.7958C104.046 81.7459 104.114 81.7178 104.185 81.7178C104.256 81.7178 104.324 81.7459 104.374 81.7958C104.424 81.8458 104.452 81.9136 104.452 81.9842C104.452 82.0549 104.424 82.1227 104.374 82.1727L100.879 85.6578C100.854 85.6826 100.825 85.7022 100.792 85.7156C100.76 85.729 100.725 85.7359 100.69 85.7358Z" fill="#A7A5B9"/>
<path d="M247.665 86.7959C247.665 82.0895 243.837 70.9214 239.114 70.9214C234.391 70.9214 230.562 82.0895 230.562 86.7959C230.562 89.0575 231.463 91.2265 233.067 92.8258C234.671 94.425 236.846 95.3234 239.114 95.3234C241.382 95.3234 243.557 94.425 245.16 92.8258C246.764 91.2265 247.665 89.0575 247.665 86.7959Z" fill="#CAC7DA"/>
<path d="M245.527 86.7959C245.527 82.0895 241.699 70.9214 236.976 70.9214C232.253 70.9214 228.425 82.0895 228.425 86.7959C228.425 89.0575 229.326 91.2265 230.929 92.8258C232.533 94.425 234.708 95.3234 236.976 95.3234C239.244 95.3234 241.419 94.425 243.023 92.8258C244.626 91.2265 245.527 89.0575 245.527 86.7959Z" fill="#E9E9EC"/>
<path d="M237.244 105.863C237.173 105.863 237.105 105.835 237.055 105.785C237.005 105.735 236.977 105.667 236.977 105.596V81.8417C236.977 81.771 237.005 81.7032 237.055 81.6533C237.105 81.6033 237.173 81.5752 237.244 81.5752C237.315 81.5752 237.383 81.6033 237.433 81.6533C237.483 81.7032 237.511 81.771 237.511 81.8417V105.596C237.511 105.667 237.483 105.735 237.433 105.785C237.383 105.835 237.315 105.863 237.244 105.863Z" fill="#A7A5B9"/>
<path d="M237.244 85.7358C237.191 85.7358 237.139 85.7202 237.095 85.6909C237.051 85.6616 237.017 85.62 236.997 85.5713C236.977 85.5226 236.971 85.4691 236.982 85.4174C236.992 85.3657 237.017 85.3182 237.055 85.2809L240.55 81.7958C240.6 81.7459 240.668 81.7178 240.738 81.7178C240.809 81.7178 240.877 81.7459 240.927 81.7958C240.977 81.8458 241.006 81.9136 241.006 81.9842C241.006 82.0549 240.977 82.1227 240.927 82.1727L237.433 85.6578C237.408 85.6826 237.378 85.7022 237.346 85.7156C237.314 85.729 237.279 85.7359 237.244 85.7358Z" fill="#A7A5B9"/>
<path d="M148.791 89.7541H142.912C142.735 89.754 142.565 89.6837 142.44 89.5588C142.315 89.4339 142.244 89.2646 142.244 89.0879V83.2253C142.244 83.0487 142.315 82.8793 142.44 82.7544C142.565 82.6295 142.735 82.5592 142.912 82.5591H148.791C148.968 82.5592 149.138 82.6295 149.263 82.7544C149.389 82.8793 149.459 83.0487 149.459 83.2253V89.0879C149.459 89.2646 149.389 89.4339 149.263 89.5588C149.138 89.6837 148.968 89.754 148.791 89.7541Z" fill="#403F4B"/>
<path d="M205.862 92.609C205.926 92.6258 205.986 92.6564 206.037 92.6988C206.088 92.7411 206.129 92.7941 206.157 92.854C206.186 92.9139 206.2 92.9793 206.201 93.0455C206.201 93.1117 206.187 93.1772 206.159 93.2373L207.321 94.3547L206.502 94.5377L205.524 93.4485C205.426 93.3951 205.351 93.3076 205.313 93.2027C205.275 93.0978 205.277 92.9827 205.319 92.8792C205.361 92.7757 205.439 92.691 205.539 92.6412C205.639 92.5914 205.754 92.5799 205.862 92.609Z" fill="#FFB8B8"/>
<path d="M207.496 95.5484L206.062 94.2075C206.042 94.1889 206.027 94.1667 206.016 94.1419C206.005 94.1172 205.999 94.0905 205.998 94.0635C205.998 94.0364 206.002 94.0096 206.013 93.9844C206.023 93.9593 206.038 93.9364 206.057 93.9172L206.349 93.6216C206.384 93.5866 206.431 93.5653 206.48 93.5619C206.529 93.5585 206.578 93.5731 206.617 93.603L207.819 94.5184L208.568 92.706C208.598 92.6344 208.642 92.5697 208.697 92.5158C208.753 92.4619 208.819 92.42 208.892 92.3926C208.964 92.3652 209.042 92.353 209.119 92.3566C209.196 92.3602 209.272 92.3796 209.342 92.4137C209.452 92.4667 209.541 92.5537 209.597 92.6618C209.653 92.7699 209.673 92.8932 209.652 93.0131C209.516 93.8375 208.693 94.9274 208.214 95.5037C208.148 95.5822 208.06 95.6385 207.961 95.665C207.862 95.6915 207.758 95.6867 207.661 95.6514C207.6 95.6284 207.543 95.5934 207.496 95.5484Z" fill="#5752EA"/>
<path d="M206.691 94.2475L205.636 92.7211C205.622 92.7015 205.617 92.6772 205.622 92.6537C205.626 92.6302 205.639 92.6094 205.659 92.5958L205.702 92.5667C205.711 92.56 205.722 92.5552 205.734 92.5528C205.746 92.5503 205.757 92.5501 205.769 92.5523C205.781 92.5544 205.792 92.5588 205.802 92.5652C205.812 92.5717 205.82 92.58 205.827 92.5897L206.882 94.1161C206.889 94.1259 206.894 94.1368 206.896 94.1484C206.899 94.16 206.899 94.1719 206.897 94.1836C206.895 94.1952 206.89 94.2063 206.884 94.2162C206.877 94.2262 206.869 94.2347 206.859 94.2414L206.817 94.2706C206.797 94.2841 206.773 94.2893 206.749 94.285C206.726 94.2807 206.705 94.2672 206.691 94.2475Z" fill="white"/>
<path d="M206.396 94.2592L205.52 92.9924C205.483 92.9383 205.469 92.8716 205.481 92.807C205.493 92.7424 205.53 92.6851 205.584 92.6478L205.673 92.5864L206.831 94.2612L206.742 94.3225C206.687 94.3598 206.621 94.374 206.556 94.3621C206.491 94.3503 206.434 94.3132 206.396 94.2592Z" fill="#403F4B"/>
<path d="M206.502 105.193L205.952 105.13L206.025 102.994L206.747 103.077L206.502 105.193Z" fill="#FFB8B8"/>
<path d="M206.582 105.741L204.808 105.537L204.81 105.515C204.821 105.424 204.849 105.337 204.893 105.257C204.938 105.178 204.997 105.107 205.069 105.051C205.14 104.994 205.222 104.952 205.31 104.927C205.398 104.902 205.49 104.895 205.58 104.905L206.664 105.03L206.582 105.741Z" fill="#28282F"/>
<path d="M212.9 104.787L212.37 104.95L211.488 102.993L212.269 102.752L212.9 104.787Z" fill="#FFB8B8"/>
<path d="M213.193 105.257L211.487 105.783L211.48 105.761C211.453 105.675 211.444 105.583 211.452 105.492C211.461 105.402 211.487 105.314 211.53 105.233C211.572 105.153 211.63 105.081 211.701 105.023C211.771 104.965 211.852 104.922 211.939 104.895L212.981 104.574L213.193 105.257Z" fill="#28282F"/>
<path d="M205.888 104.701C205.832 104.683 205.785 104.645 205.757 104.594C205.729 104.543 205.722 104.483 205.738 104.426L206.069 100.62C206.084 100.446 206.139 100.278 206.229 100.129L208.237 96.8066L210.033 97.1285L210.045 97.1333C210.918 97.6665 211.693 100.252 212.442 102.752C212.559 103.141 212.679 103.543 212.797 103.927C212.819 103.982 212.818 104.044 212.796 104.098C212.773 104.153 212.73 104.196 212.675 104.219L212.131 104.448C212.08 104.469 212.022 104.471 211.969 104.453C211.916 104.434 211.872 104.397 211.845 104.348L209.049 99.243C209.046 99.2366 209.041 99.2312 209.035 99.2271C209.029 99.2231 209.022 99.2206 209.015 99.2198C209.007 99.2189 209 99.2198 208.993 99.2224C208.986 99.225 208.98 99.2293 208.976 99.2348L207.353 101.066L206.757 104.556L206.754 104.563C206.733 104.613 206.694 104.654 206.645 104.677C206.596 104.701 206.54 104.706 206.487 104.691L205.902 104.703L205.899 104.703L205.888 104.701Z" fill="#28282F"/>
<path d="M208.14 97.1709L208.128 97.1673L208.125 97.156C208.117 97.1282 207.295 94.3575 208.035 92.5912L208.036 92.5896C208.058 92.5475 208.574 91.5586 209.174 91.4597L209.19 91.457L209.384 91.8205C209.446 91.8817 210.501 92.9741 210.022 94.8519C210.065 95.0058 210.648 97.1198 210.331 97.4357C210.215 97.5152 210.075 97.5503 209.935 97.5346C209.325 97.4825 208.722 97.3605 208.14 97.1709Z" fill="#5752EA"/>
<path d="M209.05 91.1132C209.823 91.1132 210.45 90.488 210.45 89.7167C210.45 88.9455 209.823 88.3203 209.05 88.3203C208.276 88.3203 207.649 88.9455 207.649 89.7167C207.649 90.488 208.276 91.1132 209.05 91.1132Z" fill="#28282F"/>
<path d="M208.493 91.1063C209.106 91.1063 209.603 90.611 209.603 89.9999C209.603 89.3889 209.106 88.8936 208.493 88.8936C207.881 88.8936 207.384 89.3889 207.384 89.9999C207.384 90.611 207.881 91.1063 208.493 91.1063Z" fill="#FFB8B8"/>
<path d="M209.208 91.0749C209.107 91.1107 208.982 91.1423 208.903 91.068C208.87 91.0252 208.85 90.9734 208.847 90.9195C208.844 90.8655 208.857 90.8118 208.885 90.7654C208.943 90.6742 208.989 90.5766 209.024 90.4746C209.034 90.3979 209.024 90.3199 208.996 90.248C208.967 90.1762 208.92 90.1131 208.859 90.0648C208.739 89.9733 208.602 89.9049 208.457 89.8631L207.68 89.5878C207.479 89.5403 207.299 89.4246 207.173 89.2603C207.109 89.1234 207.097 88.9672 207.142 88.8225C207.187 88.6778 207.284 88.5551 207.415 88.4784C207.547 88.4121 207.693 88.3761 207.84 88.3732C207.988 88.3703 208.134 88.4006 208.269 88.4617C208.417 88.5306 208.569 88.5911 208.724 88.6432C209.035 88.725 209.388 88.6516 209.661 88.8264C209.777 88.9137 209.868 89.0283 209.928 89.1599C209.987 89.2915 210.013 89.4359 210.002 89.5798C209.978 89.8693 209.901 90.1518 209.773 90.4129C209.714 90.5738 209.628 90.7237 209.52 90.8567C209.467 90.9216 209.399 90.9728 209.322 91.0059C209.244 91.0391 209.16 91.0533 209.076 91.0472L209.208 91.0749Z" fill="#28282F"/>
<path d="M210.224 89.942C210.723 89.942 211.127 89.5386 211.127 89.041C211.127 88.5435 210.723 88.1401 210.224 88.1401C209.725 88.1401 209.32 88.5435 209.32 89.041C209.32 89.5386 209.725 89.942 210.224 89.942Z" fill="#28282F"/>
<path d="M208.733 90.3475C208.733 90.3312 208.738 90.3151 208.746 90.3011C208.755 90.2871 208.767 90.2756 208.781 90.2679C208.796 90.2602 208.812 90.2566 208.828 90.2574C208.845 90.2583 208.861 90.2636 208.874 90.2727C208.888 90.2818 208.899 90.2945 208.906 90.3093C208.913 90.3241 208.915 90.3405 208.914 90.3568C208.912 90.3731 208.906 90.3885 208.896 90.4016C208.886 90.4147 208.873 90.4248 208.858 90.4309V90.6291C208.858 90.6335 208.857 90.638 208.855 90.6421C208.853 90.6462 208.851 90.65 208.848 90.6532C208.845 90.6563 208.841 90.6588 208.837 90.6606C208.833 90.6623 208.828 90.6632 208.824 90.6632C208.819 90.6632 208.815 90.6623 208.811 90.6606C208.807 90.6588 208.803 90.6563 208.8 90.6532C208.797 90.65 208.794 90.6462 208.792 90.6421C208.791 90.638 208.79 90.6335 208.79 90.6291V90.4309C208.773 90.4242 208.759 90.4127 208.749 90.3978C208.739 90.383 208.733 90.3655 208.733 90.3475Z" fill="white"/>
<path d="M205.916 93.5545C205.982 93.5479 206.049 93.5559 206.112 93.5778C206.174 93.5997 206.232 93.6351 206.279 93.6814C206.326 93.7277 206.363 93.7838 206.387 93.8458C206.41 93.9078 206.419 93.9742 206.414 94.0402L207.894 94.6837L207.191 95.1397L205.893 94.4587C205.783 94.4428 205.682 94.3869 205.61 94.3017C205.538 94.2165 205.499 94.1079 205.502 93.9964C205.505 93.8849 205.549 93.7784 205.625 93.6969C205.701 93.6155 205.805 93.5648 205.916 93.5545Z" fill="#FFB8B8"/>
<path d="M208.476 95.7419L206.664 94.9833C206.639 94.9728 206.616 94.9574 206.597 94.9381C206.578 94.9187 206.563 94.8958 206.553 94.8706C206.543 94.8455 206.538 94.8185 206.539 94.7915C206.54 94.7645 206.546 94.7378 206.557 94.7131L206.728 94.3343C206.748 94.2894 206.784 94.2534 206.829 94.233C206.874 94.2127 206.925 94.2094 206.973 94.2237L208.419 94.6642L208.488 92.705C208.49 92.6277 208.509 92.5517 208.542 92.4819C208.575 92.412 208.623 92.3497 208.681 92.2988C208.74 92.2479 208.808 92.2095 208.882 92.186C208.956 92.1625 209.034 92.1543 209.111 92.162C209.232 92.1735 209.347 92.2239 209.437 92.3058C209.527 92.3877 209.588 92.4965 209.611 92.616C209.772 93.436 209.381 94.7438 209.133 95.4505C209.099 95.5468 209.036 95.6303 208.953 95.6894C208.869 95.7486 208.77 95.7805 208.667 95.7808C208.602 95.7807 208.536 95.7675 208.476 95.7419Z" fill="#5752EA"/>
<path d="M22.6592 95.2783H19.8838V94.4381C20.7608 93.8295 21.5379 93.8824 22.5601 94.4875L22.6592 95.2783Z" fill="#5752EA"/>
<path d="M19.2405 110.202H18.6328L18.542 107.865H19.2405V110.202Z" fill="#FFB8B8"/>
<path d="M19.3957 110.789L17.4365 110.789V110.764C17.4365 110.664 17.4562 110.566 17.4946 110.473C17.5329 110.381 17.5891 110.297 17.6599 110.227C17.7307 110.156 17.8148 110.1 17.9073 110.062C17.9998 110.024 18.099 110.004 18.1991 110.004L19.3957 110.004L19.3957 110.789Z" fill="#28282F"/>
<path d="M22.6634 110.202H23.2708L23.3616 107.865H22.6631L22.6634 110.202Z" fill="#FFB8B8"/>
<path d="M22.5078 110.004L23.7044 110.004C23.8045 110.004 23.9038 110.024 23.9963 110.062C24.0888 110.1 24.1729 110.156 24.2437 110.227C24.3145 110.297 24.3707 110.381 24.409 110.473C24.4473 110.566 24.467 110.664 24.467 110.764V110.789L22.5078 110.789L22.5078 110.004Z" fill="#28282F"/>
<path d="M22.6792 109.902C22.6285 109.902 22.5794 109.885 22.5398 109.853C22.5003 109.822 22.4726 109.778 22.4614 109.728L20.9554 103.178C20.9521 103.161 20.943 103.146 20.9298 103.136C20.9165 103.125 20.8999 103.119 20.8829 103.12H20.8825C20.8654 103.119 20.8488 103.125 20.8355 103.136C20.8223 103.147 20.8133 103.162 20.8101 103.179L19.4272 109.685C19.4164 109.735 19.3889 109.779 19.3492 109.811C19.3095 109.843 19.26 109.861 19.209 109.861H18.5502C18.5198 109.861 18.4897 109.855 18.4618 109.843C18.4339 109.831 18.4087 109.813 18.3879 109.791C18.367 109.769 18.3509 109.743 18.3405 109.715C18.3302 109.686 18.3257 109.656 18.3275 109.626L18.8182 101.379L19.0157 101.321L19.0194 101.321L22.8979 101.355L23.724 109.592C23.7269 109.622 23.7239 109.651 23.7151 109.679C23.7064 109.708 23.6921 109.734 23.6731 109.756C23.6541 109.779 23.6308 109.798 23.6045 109.811C23.5782 109.825 23.5495 109.833 23.52 109.835L22.6971 109.902C22.6911 109.902 22.6851 109.902 22.6792 109.902Z" fill="#28282F"/>
<path d="M21.0776 93.7725C21.7499 93.7725 22.2949 93.229 22.2949 92.5586C22.2949 91.8882 21.7499 91.3447 21.0776 91.3447C20.4053 91.3447 19.8604 91.8882 19.8604 92.5586C19.8604 93.229 20.4053 93.7725 21.0776 93.7725Z" fill="#FFB8B8"/>
<path d="M20.3318 102.283C20.1183 102.286 19.9056 102.256 19.701 102.195C19.5191 102.14 19.3504 102.049 19.2051 101.927C19.0599 101.804 18.9413 101.654 18.8566 101.484C18.8298 101.433 18.8238 101.374 18.84 101.318C18.9742 100.862 19.623 98.4865 19.2091 96.5984C19.1506 96.3361 19.1458 96.0648 19.1948 95.8006C19.2438 95.5364 19.3457 95.2847 19.4943 95.0607C19.6395 94.8383 19.8281 94.6474 20.0488 94.4993C20.2696 94.3513 20.518 94.2491 20.7793 94.1988C20.8479 94.1854 20.917 94.1744 20.9844 94.1661C21.2732 94.1307 21.5663 94.1593 21.8426 94.25C22.119 94.3407 22.3719 94.4911 22.5831 94.6907C22.8007 94.8941 22.9704 95.1429 23.0802 95.4194C23.19 95.6959 23.2372 95.9932 23.2183 96.29L22.9002 101.381C22.898 101.419 22.8859 101.456 22.8651 101.488C22.8442 101.52 22.8154 101.546 22.7813 101.564C22.415 101.755 21.3144 102.283 20.3318 102.283Z" fill="#403F4B"/>
<path d="M22.4527 91.665C22.3262 91.3481 22.0946 91.084 21.7965 90.9168C21.4984 90.7497 21.1518 90.6896 20.8146 90.7465L21.1984 91.0558C20.7215 91.0718 20.2196 91.0377 19.8791 91.3711C19.9875 91.3681 20.1295 91.5993 20.2379 91.5963C20.1365 91.6034 20.0388 91.6375 19.9551 91.6951C19.8714 91.7527 19.8047 91.8316 19.762 91.9236C19.6791 92.1099 19.6597 92.3182 19.7068 92.5165C19.8296 92.8084 19.9725 93.0914 20.1343 93.3636C20.1202 92.8808 21.0735 91.729 21.539 91.8492C21.3025 91.9367 21.0972 92.0921 20.9492 92.2958C21.2659 92.1364 21.624 92.0779 21.9752 92.1284C22.0553 92.1467 22.138 92.1513 22.2197 92.142C22.2698 92.1321 22.3165 92.1096 22.3554 92.0766C22.3943 92.0436 22.424 92.0012 22.4418 91.9535C22.4595 91.9058 22.4647 91.8543 22.4568 91.804C22.4489 91.7537 22.4283 91.7062 22.3968 91.6661L22.4527 91.665Z" fill="#28282F"/>
<path d="M20.248 101.978C20.2172 101.977 20.1868 101.971 20.1587 101.959L17.8491 100.953C17.8 100.932 17.7602 100.895 17.737 100.847C17.7137 100.799 17.7086 100.744 17.7225 100.693L19.2515 94.9329C19.2799 94.8257 19.3295 94.7253 19.3973 94.6375C19.4652 94.5496 19.5499 94.4762 19.6465 94.4214C19.7432 94.3666 19.8498 94.3316 19.9602 94.3184C20.0705 94.3052 20.1825 94.3141 20.2893 94.3446L20.9007 94.5186L20.4703 101.768C20.4681 101.804 20.4573 101.839 20.4388 101.869C20.4203 101.9 20.3946 101.926 20.364 101.944C20.3291 101.966 20.289 101.977 20.248 101.978Z" fill="#5752EA"/>
<path d="M24.5226 100.693L24.421 100.311L24.2738 99.7552L24.2029 99.4888L24.0557 98.9347L22.9936 94.933C22.9653 94.8257 22.9158 94.7253 22.848 94.6374C22.7802 94.5495 22.6954 94.476 22.5988 94.4212C22.5021 94.3665 22.3954 94.3315 22.285 94.3183C22.1746 94.3052 22.0627 94.3142 21.9558 94.3448L21.3447 94.5188L21.6475 99.6178L21.6788 100.15L21.6986 100.486V100.486L21.7303 101.015L21.7749 101.768C21.7786 101.825 21.8035 101.878 21.8448 101.917C21.8861 101.956 21.9407 101.977 21.9974 101.978C22.0282 101.978 22.0585 101.971 22.0867 101.959L24.3962 100.954C24.4453 100.933 24.4851 100.895 24.5084 100.847C24.5316 100.799 24.5366 100.744 24.5226 100.693Z" fill="#5752EA"/>
<path d="M24.203 99.4889L21.6787 100.15L21.6475 99.6178L24.0557 98.9346L24.203 99.4889Z" fill="#A7A5B9"/>
<path d="M24.4208 100.31L21.73 101.015L21.6982 100.486V100.485L24.2735 99.7549L24.4208 100.31Z" fill="#A7A5B9"/>
<path d="M20.5664 99.7324L20.5352 100.255L18.0596 99.5195L18.2047 98.9727L20.5664 99.7324Z" fill="#A7A5B9"/>
<path d="M20.5152 100.599L17.9891 99.7856L17.8438 100.334L20.4845 101.118L20.5152 100.599Z" fill="#A7A5B9"/>
<path d="M18.0332 101.145C18.1085 101.125 18.1786 101.089 18.2385 101.04C18.2985 100.99 18.3468 100.928 18.38 100.858C18.4133 100.788 18.4308 100.711 18.4312 100.634C18.4316 100.556 18.4149 100.479 18.3823 100.409L19.5699 96.691L18.7278 96.5151L17.639 100.16C17.5238 100.223 17.4357 100.325 17.3912 100.448C17.3467 100.571 17.3489 100.706 17.3975 100.827C17.4461 100.949 17.5377 101.048 17.6548 101.106C17.772 101.165 17.9066 101.179 18.0332 101.145Z" fill="#FFB8B8"/>
<path d="M19.6022 94.8633C19.844 94.8879 19.98 95.159 19.9199 95.4966L19.6314 97.1166C19.6097 97.238 19.5095 97.3342 19.4262 97.3134L18.4503 97.0702C18.3753 97.0514 18.3476 96.9451 18.3901 96.8386L18.976 95.373C19.0156 95.2344 19.0969 95.1113 19.2089 95.0202C19.3208 94.929 19.4581 94.8743 19.6022 94.8633Z" fill="#403F4B"/>
<path d="M21.0733 90.2866C21.4852 90.2867 21.881 90.4466 22.1768 90.7326C22.4726 91.0186 22.6452 91.4081 22.658 91.8187H22.9566C22.9829 91.8187 23.0081 91.8292 23.0267 91.8477C23.0453 91.8662 23.0557 91.8914 23.0557 91.9176V92.313C23.0557 92.3392 23.0453 92.3643 23.0267 92.3829C23.0081 92.4014 22.9829 92.4118 22.9566 92.4118H19.5864C19.5601 92.4118 19.5349 92.4014 19.5163 92.3829C19.4977 92.3643 19.4873 92.3392 19.4873 92.313V91.8682C19.4873 91.6605 19.5283 91.4548 19.608 91.2629C19.6877 91.0711 19.8045 90.8967 19.9518 90.7498C20.0991 90.603 20.2739 90.4865 20.4663 90.407C20.6588 90.3275 20.865 90.2866 21.0733 90.2866Z" fill="#5752EA"/>
<path d="M21.2628 100.063H20.5623C20.5398 100.063 20.5181 100.054 20.5014 100.039C20.4848 100.024 20.4744 100.004 20.4723 99.9812L20.332 98.5479H21.4931L21.3528 99.9812C21.3507 100.004 21.3403 100.024 21.3237 100.039C21.307 100.054 21.2853 100.063 21.2628 100.063Z" fill="#CAC7DA"/>
<path d="M21.4909 98.7283H20.3336C20.3096 98.7282 20.2866 98.7187 20.2697 98.7018C20.2527 98.6849 20.2432 98.662 20.2432 98.6381V98.4217C20.2432 98.3978 20.2527 98.3749 20.2697 98.358C20.2866 98.3411 20.3096 98.3316 20.3336 98.3315H21.4909C21.5149 98.3316 21.5378 98.3411 21.5548 98.358C21.5717 98.3749 21.5813 98.3978 21.5813 98.4217V98.6381C21.5813 98.662 21.5717 98.6849 21.5548 98.7018C21.5378 98.7187 21.5149 98.7282 21.4909 98.7283Z" fill="#A7A5B9"/>
<path d="M20.927 99.294C20.9543 99.2971 20.9812 99.3024 21.0077 99.3098L22.8734 97.7142L22.7644 97.1287L23.6289 96.8491L23.9229 97.8668C23.9467 97.949 23.9431 98.0367 23.9126 98.1167C23.8821 98.1967 23.8265 98.2646 23.754 98.3104L21.391 99.8015C21.3927 99.9068 21.3622 100.01 21.3035 100.098C21.2448 100.185 21.1608 100.253 21.0626 100.292C20.9644 100.331 20.8567 100.339 20.7537 100.315C20.6508 100.292 20.5575 100.237 20.4864 100.159C20.4152 100.081 20.3695 99.9838 20.3553 99.8794C20.3411 99.775 20.3591 99.6687 20.407 99.5748C20.4548 99.4809 20.5302 99.4037 20.6231 99.3535C20.716 99.3034 20.822 99.2826 20.927 99.294Z" fill="#FFB8B8"/>
<path d="M22.8787 94.9973C23.137 94.9252 23.3951 95.1212 23.4816 95.4552L23.8966 97.0581C23.9277 97.1782 23.8672 97.3059 23.7729 97.3194L22.6673 97.478C22.5823 97.4902 22.5073 97.4032 22.5042 97.2886L22.4613 95.7114C22.4448 95.5634 22.4765 95.4142 22.5517 95.2856C22.6269 95.157 22.7415 95.0559 22.8787 94.9973Z" fill="#403F4B"/>
<path d="M35.4455 99.3336H34.6038C34.5767 99.3337 34.5507 99.3237 34.5307 99.3056C34.5107 99.2875 34.4982 99.2626 34.4956 99.2358L34.3271 97.5137H35.722L35.5536 99.2357C35.551 99.2626 35.5385 99.2875 35.5185 99.3056C35.4985 99.3237 35.4725 99.3337 35.4455 99.3336Z" fill="#CAC7DA"/>
<path d="M35.7198 97.7301H34.3293C34.3005 97.73 34.2729 97.7186 34.2526 97.6983C34.2322 97.678 34.2207 97.6504 34.2207 97.6217V97.3617C34.2207 97.333 34.2322 97.3055 34.2526 97.2852C34.2729 97.2649 34.3005 97.2535 34.3293 97.2534H35.7198C35.7486 97.2535 35.7762 97.2649 35.7966 97.2852C35.8169 97.3055 35.8284 97.333 35.8284 97.3617V97.6217C35.8284 97.6504 35.8169 97.678 35.7966 97.6983C35.7762 97.7186 35.7486 97.73 35.7198 97.7301Z" fill="#A7A5B9"/>
<path d="M43.7139 109.446C43.1024 108.635 42.6189 107.735 42.2804 106.778C42.2607 106.721 42.2621 106.659 42.2843 106.602C42.3064 106.546 42.3479 106.499 42.4013 106.471L44.494 105.353C44.5279 105.334 44.5655 105.324 44.6039 105.322C44.6424 105.321 44.6807 105.328 44.7159 105.344C44.7518 105.359 44.7836 105.383 44.809 105.412C44.8344 105.442 44.8527 105.477 44.8624 105.515C45.106 106.437 45.5639 107.289 46.199 108.002C46.2251 108.031 46.2443 108.066 46.255 108.103C46.2657 108.141 46.2677 108.18 46.2608 108.219C46.2541 108.257 46.239 108.292 46.2164 108.323C46.1938 108.354 46.1644 108.38 46.1304 108.398L44.0377 109.516C43.9842 109.545 43.9223 109.553 43.863 109.54C43.8037 109.528 43.7509 109.494 43.7139 109.446Z" fill="#A7A5B9"/>
<path d="M43.8569 109.339C43.8681 109.353 43.8839 109.363 43.9016 109.367C43.9192 109.37 43.9376 109.368 43.9535 109.359L46.0462 108.241C46.0563 108.236 46.0651 108.228 46.0719 108.219C46.0786 108.21 46.0831 108.199 46.085 108.188C46.0872 108.176 46.0866 108.164 46.0833 108.152C46.0799 108.14 46.0739 108.13 46.0657 108.121C45.4119 107.387 44.9405 106.51 44.6898 105.56C44.6869 105.548 44.6813 105.537 44.6735 105.528C44.6657 105.519 44.6558 105.512 44.6447 105.507C44.6342 105.502 44.6228 105.5 44.6113 105.501C44.5998 105.501 44.5886 105.504 44.5786 105.51L42.4859 106.628C42.47 106.636 42.4577 106.65 42.4509 106.667C42.4442 106.684 42.4435 106.702 42.449 106.719C42.7815 107.659 43.2563 108.543 43.8569 109.339Z" fill="white"/>
<path d="M44.6316 106.949L43.4918 107.45C43.4484 107.469 43.3993 107.471 43.3551 107.453C43.311 107.436 43.2754 107.403 43.2562 107.359L43.228 107.296C43.209 107.252 43.2079 107.203 43.225 107.159C43.2421 107.115 43.276 107.08 43.3193 107.061L44.4591 106.559C44.5024 106.54 44.5516 106.539 44.5958 106.556C44.6399 106.573 44.6755 106.607 44.6947 106.65L44.7229 106.714C44.7419 106.757 44.743 106.806 44.7259 106.85C44.7088 106.894 44.6749 106.93 44.6316 106.949Z" fill="#A7A5B9"/>
<path d="M45.0486 107.721L43.9088 108.222C43.8654 108.241 43.8163 108.242 43.7721 108.225C43.728 108.208 43.6924 108.175 43.6732 108.131L43.645 108.068C43.626 108.024 43.6249 107.975 43.642 107.931C43.6591 107.887 43.693 107.852 43.7363 107.833L44.8761 107.331C44.9194 107.312 44.9686 107.311 45.0128 107.328C45.0569 107.345 45.0925 107.379 45.1117 107.422L45.1398 107.486C45.1589 107.529 45.16 107.578 45.1429 107.622C45.1258 107.666 45.0919 107.702 45.0486 107.721Z" fill="#A7A5B9"/>
<path d="M42.3759 107.077C42.2973 107.027 42.2307 106.96 42.1808 106.881C42.131 106.802 42.0991 106.713 42.0874 106.621C42.0756 106.528 42.0844 106.434 42.1131 106.346C42.1417 106.257 42.1895 106.175 42.2531 106.107L41.7725 99.3047L43.1571 99.4386L43.1951 106.1C43.3031 106.214 43.3655 106.364 43.3702 106.521C43.3749 106.678 43.3218 106.831 43.2208 106.952C43.1198 107.072 42.9781 107.151 42.8224 107.175C42.6666 107.198 42.5078 107.163 42.3759 107.077Z" fill="#A0616A"/>
<path d="M42.0853 101.59C42.0529 101.567 42.0261 101.537 42.007 101.502C41.9878 101.467 41.9768 101.428 41.9746 101.388L41.8732 99.555C41.8632 99.3734 41.9209 99.1945 42.0353 99.0528C42.1497 98.9111 42.3127 98.8167 42.4928 98.7877C42.6729 98.7587 42.8574 98.7973 43.0106 98.8959C43.1639 98.9946 43.2751 99.1463 43.3229 99.3219L43.7685 100.961C43.7871 101.029 43.7776 101.102 43.7423 101.164C43.7069 101.225 43.6486 101.27 43.5801 101.289L42.3123 101.632C42.2738 101.642 42.2334 101.644 42.1941 101.637C42.1548 101.63 42.1177 101.614 42.0853 101.59Z" fill="#403F4B"/>
<path d="M39.7256 115.44L38.9958 115.44L38.6484 112.632H39.7259L39.7256 115.44Z" fill="#A0616A"/>
<path d="M38.3113 115.232H39.8822V116.116H37.5879V115.953C37.5879 115.859 37.6066 115.765 37.643 115.677C37.6793 115.59 37.7326 115.51 37.7998 115.443C37.8669 115.376 37.9467 115.323 38.0345 115.287C38.1222 115.251 38.2163 115.232 38.3113 115.232Z" fill="#28282F"/>
<path d="M42.4649 115.44L41.7351 115.44L41.3877 112.632H42.4652L42.4649 115.44Z" fill="#A0616A"/>
<path d="M41.0506 115.232H42.6214V116.116H40.3271V115.953C40.3271 115.859 40.3459 115.765 40.3822 115.677C40.4186 115.59 40.4718 115.51 40.539 115.443C40.6062 115.376 40.6859 115.323 40.7737 115.287C40.8615 115.251 40.9556 115.232 41.0506 115.232Z" fill="#28282F"/>
<path d="M39.6914 114.026L38.8877 113.987C38.8193 113.984 38.7547 113.955 38.7072 113.906C38.6597 113.856 38.633 113.791 38.6325 113.722C38.4207 110.461 38.1273 106.965 38.5765 105.614C38.5762 105.575 38.5843 105.537 38.6001 105.502C38.616 105.467 38.6393 105.436 38.6684 105.411C38.6975 105.385 38.7317 105.366 38.7687 105.356C38.8058 105.345 38.8447 105.342 38.8829 105.347L42.0979 105.813C42.1614 105.822 42.2196 105.853 42.2618 105.901C42.3039 105.95 42.3272 106.011 42.3274 106.075C42.7378 107.675 42.7564 110.575 42.7409 113.589C42.7411 113.624 42.7344 113.659 42.7211 113.692C42.7077 113.724 42.688 113.754 42.6631 113.779C42.6382 113.804 42.6086 113.824 42.5759 113.837C42.5433 113.851 42.5083 113.858 42.4729 113.858H41.6065C41.5426 113.858 41.4807 113.836 41.4322 113.794C41.3836 113.753 41.3515 113.695 41.3418 113.632L40.8073 110.244C40.7995 110.194 40.774 110.149 40.7354 110.117C40.6969 110.085 40.6479 110.067 40.5976 110.068C40.5473 110.069 40.499 110.088 40.4617 110.122C40.4243 110.156 40.4005 110.202 40.3945 110.251L39.9702 113.79C39.9622 113.855 39.9308 113.915 39.8818 113.958C39.8328 114.002 39.7696 114.026 39.7041 114.026C39.6999 114.026 39.6956 114.026 39.6914 114.026Z" fill="#28282F"/>
<path d="M40.2572 106.076C39.7879 105.801 39.2678 105.623 38.7281 105.553C38.6926 105.55 38.6582 105.539 38.6269 105.522C38.5957 105.505 38.5682 105.482 38.5462 105.454C38.5238 105.426 38.5073 105.393 38.4977 105.359C38.4882 105.324 38.4859 105.288 38.4908 105.252L39.2612 99.5487C39.3055 99.215 39.4347 98.8982 39.6366 98.6284C39.8384 98.3586 40.1061 98.1448 40.4141 98.0074C40.7124 97.8707 41.0407 97.8123 41.3679 97.8379C41.6951 97.8635 42.0104 97.9721 42.2836 98.1535C42.31 98.171 42.3359 98.1889 42.3613 98.2071C42.6759 98.437 42.9153 98.7547 43.0492 99.12C43.1831 99.4853 43.2055 99.882 43.1137 100.26C42.6413 102.187 42.4791 105.347 42.4513 105.96C42.4491 106.013 42.4315 106.063 42.4006 106.105C42.3696 106.148 42.3268 106.18 42.2776 106.198C41.9869 106.303 41.6802 106.358 41.371 106.359C40.9815 106.361 40.5979 106.264 40.2572 106.076Z" fill="#403F4B"/>
<path d="M40.901 97.2332C41.7087 97.2332 42.3634 96.5803 42.3634 95.7748C42.3634 94.9694 41.7087 94.3164 40.901 94.3164C40.0932 94.3164 39.4385 94.9694 39.4385 95.7748C39.4385 96.5803 40.0932 97.2332 40.901 97.2332Z" fill="#A0616A"/>
<path d="M41.9363 96.9283C41.8751 96.9941 41.7964 97.0411 41.7094 97.0638C41.6224 97.0864 41.5307 97.0839 41.4451 97.0564C41.3595 97.0289 41.2836 96.9776 41.2262 96.9086C41.1688 96.8396 41.1324 96.7556 41.1212 96.6666C41.1184 96.6359 41.1186 96.605 41.1218 96.5743C41.1751 96.4056 41.2072 96.231 41.2174 96.0545C41.2119 96.0084 41.1947 95.9645 41.1674 95.9269C40.95 95.6366 40.4396 96.0568 40.2345 95.7939C40.1086 95.6328 40.2565 95.379 40.16 95.1989C40.0326 94.9612 39.6551 95.0785 39.4184 94.9483C39.1551 94.8034 39.1708 94.4005 39.3442 94.1554C39.457 94.0106 39.6005 93.8924 39.7644 93.8092C39.9282 93.726 40.1085 93.6798 40.2923 93.674C40.6604 93.6654 41.0259 93.7365 41.3637 93.8825C41.7626 94.0119 42.1146 94.2553 42.376 94.5825C42.5112 94.797 42.5969 95.0388 42.6269 95.2905C42.6568 95.5421 42.6303 95.7972 42.5492 96.0374C42.4062 96.3719 42.1978 96.6748 41.9363 96.9283Z" fill="#28282F"/>
<path d="M43.0943 98.3462C43.0687 98.2262 42.849 98.0623 42.5346 97.9287C42.0292 97.7246 41.4826 97.6424 40.9394 97.6889C40.3962 97.7353 39.8716 97.9091 39.4085 98.196C39.3762 98.1977 39.3453 98.21 39.3207 98.2309C39.296 98.2518 39.279 98.2802 39.2721 98.3117L38.2146 102.976L38.077 103.583L37.9859 103.985L37.8484 104.591L37.7752 104.915C37.7705 104.935 37.7703 104.957 37.7746 104.978C37.7789 104.998 37.7876 105.018 37.8001 105.035C37.8126 105.052 37.8286 105.067 37.8471 105.077C37.8656 105.087 37.8862 105.094 37.9074 105.096L42.4738 105.489C42.478 105.489 42.4827 105.489 42.4869 105.489C42.5246 105.489 42.5608 105.475 42.5882 105.449C42.6156 105.423 42.6322 105.388 42.6346 105.351L42.678 104.691L42.7245 103.985L42.7447 103.68L42.7906 102.976L43.0949 98.3539V98.3497L43.0943 98.3462Z" fill="#5752EA"/>
<path d="M35.6016 98.64C35.6089 98.6721 35.6136 98.7046 35.6158 98.7374L38.1737 100.209L38.7954 99.852L39.4582 100.717L38.1282 101.663L35.21 99.3669C35.091 99.4108 34.9614 99.4176 34.8384 99.3862C34.7155 99.3549 34.605 99.287 34.5217 99.1916C34.4384 99.0961 34.3862 98.9776 34.3721 98.8518C34.3579 98.726 34.3825 98.599 34.4426 98.4875C34.5026 98.376 34.5953 98.2854 34.7082 98.2277C34.8212 98.17 34.9491 98.148 35.0749 98.1645C35.2007 98.1811 35.3185 98.2355 35.4126 98.3204C35.5067 98.4053 35.5726 98.5168 35.6016 98.64Z" fill="#A0616A"/>
<path d="M38.2652 100.084C38.2609 100.044 38.2656 100.004 38.279 99.9665C38.2923 99.9289 38.3139 99.8948 38.3422 99.8667L39.644 98.5682C39.773 98.4396 39.9452 98.3631 40.1274 98.3536C40.3096 98.344 40.4888 98.4021 40.6306 98.5165C40.7724 98.631 40.8667 98.7937 40.8953 98.9734C40.9238 99.1531 40.8847 99.3369 40.7854 99.4895L39.8583 100.914C39.8196 100.974 39.7588 101.015 39.6893 101.03C39.6198 101.045 39.5473 101.031 39.4877 100.993L38.3858 100.28C38.3523 100.258 38.324 100.229 38.3032 100.195C38.2823 100.161 38.2693 100.123 38.2652 100.084Z" fill="#403F4B"/>
<path d="M42.7908 102.976L42.7451 103.68L38.0771 103.584L38.2148 102.976H42.7908Z" fill="#A7A5B9"/>
<path d="M42.7247 103.985L42.6782 104.691L37.8486 104.591L37.9863 103.985H42.7247Z" fill="#A7A5B9"/>
<path d="M40.9296 92.9409C40.4347 92.941 39.9592 93.1331 39.6038 93.4767C39.2484 93.8203 39.0411 94.2883 39.0257 94.7817H38.6669C38.6354 94.7817 38.6051 94.7942 38.5827 94.8164C38.5604 94.8387 38.5479 94.8689 38.5479 94.9004V95.3754C38.5479 95.4069 38.5604 95.4371 38.5827 95.4594C38.6051 95.4817 38.6354 95.4942 38.6669 95.4942H42.716C42.7476 95.4942 42.7779 95.4817 42.8002 95.4594C42.8225 95.4371 42.8351 95.4069 42.8351 95.3754V94.841C42.8351 94.5915 42.7858 94.3444 42.69 94.1139C42.5943 93.8834 42.4539 93.6739 42.277 93.4974C42.1 93.321 41.89 93.181 41.6588 93.0855C41.4276 92.9901 41.1799 92.9409 40.9296 92.9409Z" fill="#5752EA"/>
<path d="M51.6543 112.272H51.2459C51.2433 112.222 50.695 110.939 50.695 110.939L50.3636 110.14L50.1445 109.607L49.8131 108.807L49.4336 107.888C49.4239 107.847 49.4004 107.81 49.3669 107.783C49.3335 107.757 49.292 107.742 49.2493 107.742C49.2065 107.742 49.165 107.757 49.1316 107.783C49.0981 107.81 49.0746 107.847 49.0649 107.888L48.6854 108.807L48.354 109.607L48.1349 110.14L47.8035 110.939C47.8035 110.939 47.2552 112.222 47.2526 112.272H46.8442C46.7379 112.272 46.6359 112.314 46.5608 112.389C46.4856 112.464 46.4434 112.565 46.4434 112.671C46.4434 112.777 46.4856 112.879 46.5608 112.954C46.6359 113.029 46.7379 113.071 46.8442 113.071H51.6543C51.7606 113.071 51.8626 113.029 51.9377 112.954C52.0129 112.879 52.0551 112.777 52.0551 112.671C52.0551 112.565 52.0129 112.464 51.9377 112.389C51.8626 112.314 51.7606 112.272 51.6543 112.272Z" fill="#FF6584"/>
<path d="M51.387 119.201H51.2287C51.2432 119.166 50.5399 117.372 50.5399 117.372L50.1177 116.346L49.8344 115.659L49.4121 114.633L48.9526 113.522C48.9397 113.469 48.9095 113.423 48.8668 113.389C48.8242 113.356 48.7716 113.338 48.7174 113.338C48.6632 113.338 48.6106 113.356 48.568 113.389C48.5253 113.423 48.4951 113.469 48.4822 113.522L48.0226 114.633L47.6004 115.659L47.3144 116.346L46.8923 117.372C46.8923 117.372 46.1916 119.166 46.2061 119.201H46.0424C45.9361 119.201 45.8342 119.243 45.759 119.318C45.6838 119.393 45.6416 119.494 45.6416 119.6C45.6416 119.706 45.6838 119.808 45.759 119.883C45.8342 119.958 45.9361 120 46.0424 120H51.387C51.4933 120 51.5953 119.958 51.6704 119.883C51.7456 119.808 51.7878 119.706 51.7878 119.6C51.7878 119.494 51.7456 119.393 51.6704 119.318C51.5953 119.243 51.4933 119.201 51.387 119.201Z" fill="#FF6584"/>
<path d="M50.1439 109.607H48.3535L48.6849 108.808H49.8126L50.1439 109.607Z" fill="#E9E9EC"/>
<path d="M50.6941 110.94H47.8027L48.1341 110.14H50.3628L50.6941 110.94Z" fill="#E9E9EC"/>
<path d="M49.8336 115.659H47.5996L48.0218 114.633H49.4114L49.8336 115.659Z" fill="#E9E9EC"/>
<path d="M50.5393 117.373H46.8916L47.3138 116.347H50.117L50.5393 117.373Z" fill="#E9E9EC"/>
<path d="M110.359 97.0148C110.401 96.9741 110.433 96.9249 110.453 96.8706C110.473 96.8163 110.481 96.7583 110.476 96.7006C110.471 96.6429 110.454 96.587 110.425 96.5368C110.396 96.4865 110.357 96.4432 110.309 96.4098L110.109 95.0918L109.285 95.3503L109.736 96.5262C109.685 96.6093 109.667 96.7082 109.684 96.8041C109.701 96.9 109.753 96.9863 109.83 97.0465C109.907 97.1067 110.003 97.1368 110.101 97.1309C110.198 97.1251 110.29 97.0838 110.359 97.0148Z" fill="#FFB8B8"/>
<path d="M109.512 96.3947L109.004 94.0288C108.954 93.8022 108.964 93.5667 109.032 93.3449C109.1 93.1231 109.224 92.9223 109.392 92.7619C110.042 92.1371 110.878 91.3495 111.166 91.1457C111.437 90.9531 111.765 90.8566 112.098 90.8716L112.105 90.8724L112.542 91.2842L111.59 92.8469L110.144 93.7498L110.305 96.0687L109.512 96.3947Z" fill="#5752EA"/>
<path d="M111.29 93.1797H109.158C109.066 93.1797 108.991 93.2543 108.991 93.3464C108.991 93.4385 109.066 93.5132 109.158 93.5132H111.29C111.383 93.5132 111.457 93.4385 111.457 93.3464C111.457 93.2543 111.383 93.1797 111.29 93.1797Z" fill="#A7A5B9"/>
<path d="M111.29 96.8062H109.158C109.066 96.8062 108.991 96.8808 108.991 96.9729C108.991 97.065 109.066 97.1396 109.158 97.1396H111.29C111.383 97.1396 111.457 97.065 111.457 96.9729C111.457 96.8808 111.383 96.8062 111.29 96.8062Z" fill="#A7A5B9"/>
<path d="M110.245 105.893C110.224 105.893 110.204 105.886 110.189 105.872C110.173 105.857 110.164 105.838 110.162 105.817L109.096 93.3538C109.095 93.3429 109.096 93.3318 109.099 93.3214C109.103 93.3109 109.108 93.3012 109.115 93.2928C109.122 93.2843 109.131 93.2774 109.141 93.2723C109.15 93.2672 109.161 93.2641 109.172 93.2631C109.183 93.2622 109.194 93.2634 109.204 93.2666C109.215 93.2699 109.225 93.2753 109.233 93.2823C109.241 93.2894 109.248 93.298 109.253 93.3077C109.259 93.3175 109.262 93.3281 109.263 93.339L110.244 104.854L111.197 93.3392C111.198 93.3283 111.201 93.3176 111.206 93.3079C111.211 93.2981 111.218 93.2895 111.227 93.2824C111.235 93.2753 111.245 93.2699 111.255 93.2666C111.266 93.2633 111.277 93.2621 111.288 93.263C111.299 93.2639 111.309 93.267 111.319 93.2721C111.329 93.2772 111.338 93.2841 111.345 93.2925C111.352 93.3009 111.357 93.3107 111.36 93.3211C111.364 93.3316 111.365 93.3426 111.364 93.3536L110.328 105.817C110.327 105.838 110.317 105.857 110.302 105.871C110.286 105.886 110.266 105.893 110.245 105.893Z" fill="#A7A5B9"/>
<path d="M112.638 90.3726C113.244 90.3726 113.735 89.8829 113.735 89.2788C113.735 88.6747 113.244 88.1851 112.638 88.1851C112.032 88.1851 111.541 88.6747 111.541 89.2788C111.541 89.8829 112.032 90.3726 112.638 90.3726Z" fill="#FFB8B8"/>
<path d="M109.369 105.394L108.848 105.228L109.241 103.143L110.011 103.387L109.369 105.394Z" fill="#FFB8B8"/>
<path d="M109.34 105.855L107.661 105.321L107.675 105.278C107.728 105.111 107.846 104.973 108.001 104.892C108.157 104.812 108.338 104.797 108.505 104.85L109.555 105.183L109.34 105.855Z" fill="#28282F"/>
<path d="M113.165 105.383H112.617L112.356 103.277H113.165V105.383Z" fill="#FFB8B8"/>
<path d="M111.582 105.869H113.261V105.248H112.201C112.037 105.248 111.88 105.313 111.764 105.429C111.647 105.544 111.582 105.701 111.582 105.865V105.869Z" fill="#28282F"/>
<path d="M113.148 104.699L112.963 104.672C112.731 104.658 112.501 104.615 112.28 104.544C112.235 104.525 112.231 104.224 112.259 102.533C112.279 101.292 112.304 99.7472 112.255 98.918C112.253 98.8853 112.24 98.8542 112.218 98.8297C112.196 98.8052 112.167 98.7889 112.135 98.7832C112.102 98.7775 112.069 98.7828 112.04 98.7984C112.011 98.8139 111.988 98.8387 111.975 98.8688C111.558 99.829 110.858 101.978 110.396 103.4C110.234 103.895 110.107 104.285 110.027 104.52C110.011 104.564 109.98 104.601 109.938 104.623C109.897 104.645 109.849 104.652 109.803 104.64C109.422 104.545 109.448 104.505 108.905 104.365C108.858 104.353 108.818 104.324 108.792 104.282C108.766 104.241 108.758 104.192 108.768 104.145C108.866 103.683 110.662 96.1999 110.799 95.4885C110.804 95.4641 110.814 95.4409 110.827 95.4202C110.841 95.3996 110.859 95.3818 110.879 95.3679C110.9 95.3541 110.923 95.3445 110.947 95.3396C110.972 95.3347 110.997 95.3347 111.021 95.3396C111.426 95.4208 111.672 95.507 112.071 95.5904C112.502 95.6803 112.948 95.7733 113.383 95.8602C113.426 95.8688 113.465 95.8925 113.493 95.9271C113.614 96.0563 113.763 96.1563 113.929 96.2192C114.043 96.2735 113.785 96.2686 113.884 96.347C114.285 96.6641 113.708 103.103 113.359 104.558C113.348 104.603 113.32 104.643 113.281 104.669C113.242 104.695 113.194 104.706 113.148 104.699Z" fill="#28282F"/>
<path d="M113.106 90.236C113.042 89.965 113.365 89.382 113.301 89.1111C113.258 88.9276 112.825 89.0523 112.724 88.8929C112.677 88.8108 112.611 88.7413 112.531 88.6907C112.451 88.64 112.36 88.6097 112.265 88.6023C112.048 88.5999 111.834 88.7606 111.628 88.6912C111.58 88.6671 111.536 88.6335 111.501 88.5926C111.465 88.5516 111.438 88.504 111.421 88.4525C111.404 88.401 111.397 88.3467 111.402 88.2927C111.406 88.2386 111.421 88.186 111.446 88.1377C111.556 87.9462 111.727 87.7966 111.932 87.7127C112.254 87.516 112.641 87.4512 113.01 87.5319C113.222 87.6136 113.416 87.735 113.581 87.8895C113.747 88.0121 113.893 88.1597 114.013 88.327C114.116 88.5015 114.171 88.6992 114.174 88.9013C114.177 89.1033 114.128 89.3027 114.032 89.4804C113.832 89.8349 113.514 90.1081 113.132 90.2523" fill="#28282F"/>
<path d="M110.412 96.5414C110.53 96.3442 110.71 95.4202 110.932 93.8693C111.082 92.8106 111.214 91.7348 111.279 91.1853C111.284 91.1408 111.301 91.0984 111.327 91.0619C111.353 91.0254 111.387 90.9962 111.428 90.9768C111.47 90.9565 111.512 90.9372 111.554 90.919C112.056 90.6897 112.614 90.6087 113.161 90.6853C113.708 90.7619 114.221 90.9931 114.641 91.3515L114.646 91.3561L114.647 91.3627C114.649 91.3749 114.876 92.5923 114.412 93.4148C113.954 94.2263 113.949 96.3755 113.949 96.3971V96.4247L113.922 96.4171C113.21 96.2143 110.46 96.5692 110.432 96.5728L110.39 96.5784L110.412 96.5414Z" fill="#5752EA"/>
<path d="M114.551 93.7217H112.419C112.327 93.7217 112.252 93.7963 112.252 93.8884C112.252 93.9805 112.327 94.0552 112.419 94.0552H114.551C114.643 94.0552 114.718 93.9805 114.718 93.8884C114.718 93.7963 114.643 93.7217 114.551 93.7217Z" fill="#A7A5B9"/>
<path d="M114.551 97.3481H112.419C112.327 97.3481 112.252 97.4228 112.252 97.5149C112.252 97.607 112.327 97.6816 112.419 97.6816H114.551C114.643 97.6816 114.718 97.607 114.718 97.5149C114.718 97.4228 114.643 97.3481 114.551 97.3481Z" fill="#A7A5B9"/>
<path d="M113.506 105.935C113.485 105.935 113.465 105.927 113.449 105.913C113.434 105.899 113.424 105.88 113.423 105.859L112.357 93.8958C112.355 93.8737 112.362 93.8518 112.376 93.8349C112.39 93.8179 112.411 93.8073 112.433 93.8054C112.455 93.8034 112.477 93.8103 112.494 93.8245C112.511 93.8387 112.521 93.859 112.523 93.881L113.505 104.896L114.458 93.8812C114.459 93.8703 114.462 93.8596 114.467 93.8499C114.472 93.8401 114.479 93.8315 114.487 93.8244C114.496 93.8173 114.506 93.8119 114.516 93.8086C114.526 93.8053 114.538 93.8041 114.549 93.805C114.559 93.8059 114.57 93.809 114.58 93.8141C114.59 93.8192 114.598 93.8261 114.605 93.8345C114.612 93.8429 114.618 93.8527 114.621 93.8631C114.624 93.8736 114.626 93.8846 114.625 93.8956L113.589 105.859C113.587 105.88 113.578 105.899 113.562 105.913C113.547 105.927 113.527 105.935 113.506 105.935Z" fill="#A7A5B9"/>
<path d="M112.818 97.4008C112.805 97.3443 112.806 97.2857 112.818 97.2293C112.831 97.1728 112.856 97.1198 112.891 97.0739C112.927 97.0281 112.972 96.9906 113.023 96.964C113.075 96.9375 113.132 96.9225 113.19 96.9202L114.076 95.9224L114.627 96.5856L113.607 97.3283C113.605 97.4257 113.566 97.5188 113.5 97.5899C113.433 97.661 113.342 97.7053 113.245 97.7142C113.148 97.7232 113.05 97.6962 112.972 97.6384C112.893 97.5807 112.838 97.4961 112.818 97.4008Z" fill="#FFB8B8"/>
<path d="M113.334 96.7063L114.733 94.8468L114.011 93.3058L114.064 91.4781L114.655 91.3691L114.661 91.3723C114.948 91.5398 115.171 91.7985 115.294 92.1069C115.425 92.4344 115.697 93.5484 115.903 94.4254C115.956 94.651 115.951 94.8867 115.887 95.1097C115.823 95.3328 115.703 95.5357 115.538 95.6991L113.823 97.41L113.334 96.7063Z" fill="#5752EA"/>
<path d="M107.472 105.418L109.385 105.877C109.422 105.887 109.461 105.883 109.496 105.867C109.531 105.851 109.559 105.823 109.575 105.788L111.219 101.431C111.226 101.414 111.23 101.396 111.23 101.378C111.23 101.359 111.226 101.341 111.219 101.325C111.211 101.306 111.199 101.289 111.184 101.275C111.169 101.261 111.151 101.25 111.131 101.243L109.693 100.695C109.67 100.686 109.646 100.683 109.622 100.684C109.597 100.685 109.573 100.692 109.552 100.703C109.533 100.712 109.516 100.725 109.503 100.741C109.49 100.758 109.48 100.776 109.475 100.797L108.46 104.638L108.444 104.639C108.129 104.657 107.83 104.781 107.595 104.992C107.546 105.05 107.51 105.119 107.489 105.192C107.467 105.265 107.462 105.342 107.472 105.418Z" fill="#A7A5B9"/>
<path d="M108.856 102.975L108.848 103.058L110.592 103.242L110.601 103.159L108.856 102.975Z" fill="#A7A5B9"/>
<path d="M108.705 103.662L108.671 103.738L110.075 104.368L110.109 104.292L108.705 103.662Z" fill="#A7A5B9"/>
<path d="M110.785 102.576L109.13 102.029L109.164 101.953L110.819 102.499L110.785 102.576Z" fill="#A7A5B9"/>
<path d="M110.953 102.2L109.298 101.404L109.332 101.328L110.987 102.124L110.953 102.2Z" fill="#A7A5B9"/>
<path d="M108.559 104.315L108.505 104.378L109.698 105.394L109.752 105.331L108.559 104.315Z" fill="#A7A5B9"/>
<path d="M108.22 104.652L108.144 104.686L108.623 105.739L108.699 105.705L108.22 104.652Z" fill="#A7A5B9"/>
<path d="M154.851 97.364C154.78 97.3476 154.714 97.3158 154.657 97.2711C154.599 97.2263 154.553 97.1695 154.52 97.1047C154.487 97.04 154.469 96.9689 154.466 96.8963C154.464 96.8238 154.478 96.7516 154.506 96.6849L152.671 92.5499L153.721 92.2861L155.195 96.4337C155.304 96.4891 155.389 96.5826 155.434 96.6964C155.478 96.8101 155.48 96.9363 155.437 97.051C155.395 97.1657 155.312 97.2609 155.204 97.3186C155.096 97.3762 154.97 97.3924 154.851 97.364Z" fill="#A0616A"/>
<path d="M153.012 93.8452C152.982 93.8322 152.956 93.813 152.935 93.7889C152.914 93.7649 152.898 93.7366 152.889 93.7059L152.568 92.6354C152.498 92.4871 152.49 92.3171 152.545 92.1628C152.601 92.0084 152.716 91.8824 152.864 91.8125C153.013 91.7425 153.183 91.7344 153.338 91.7898C153.493 91.8452 153.619 91.9596 153.689 92.1079L154.31 93.0425C154.328 93.0692 154.34 93.0994 154.344 93.131C154.349 93.1626 154.348 93.1949 154.339 93.2257C154.33 93.2565 154.315 93.285 154.294 93.3094C154.273 93.3338 154.248 93.3535 154.219 93.367L153.197 93.8437C153.168 93.8573 153.137 93.8644 153.105 93.8647C153.073 93.865 153.041 93.8583 153.012 93.8452Z" fill="#5752EA"/>
<path d="M156.747 93.3119L155.621 94.1067C155.607 94.1171 155.589 94.1227 155.572 94.1227C155.554 94.1227 155.536 94.1171 155.522 94.1067L155.218 93.8789C155.208 93.8715 155.199 93.862 155.193 93.8509C155.188 93.8399 155.184 93.8277 155.184 93.8152C155.183 93.8028 155.185 93.7903 155.19 93.7788C155.195 93.7674 155.203 93.7572 155.212 93.749L156.079 92.9786C156.09 92.9687 156.104 92.9619 156.119 92.9591C156.133 92.9562 156.149 92.9573 156.163 92.9623L156.727 93.1634C156.741 93.1688 156.754 93.1779 156.764 93.1899C156.773 93.2019 156.78 93.2164 156.782 93.2316C156.784 93.2469 156.782 93.2624 156.775 93.2765C156.769 93.2907 156.76 93.3029 156.747 93.3119Z" fill="#403F4B"/>
<path d="M156.656 93.2368C156.659 93.2293 156.659 93.2211 156.655 93.2138C156.652 93.2066 156.646 93.2009 156.639 93.1981L156.131 93.0169C156.126 93.0151 156.12 93.0147 156.115 93.0156C156.11 93.0166 156.105 93.019 156.101 93.0225L155.319 93.7173L155.315 93.7219C155.313 93.725 155.311 93.7285 155.31 93.7323C155.309 93.736 155.309 93.7398 155.31 93.7436C155.311 93.7474 155.312 93.751 155.314 93.7542C155.316 93.7575 155.319 93.7603 155.322 93.7625L155.595 93.9674C155.601 93.9711 155.607 93.9731 155.613 93.973C155.62 93.973 155.626 93.9709 155.631 93.967L156.645 93.2507C156.65 93.2472 156.654 93.2424 156.656 93.2368Z" fill="white"/>
<path d="M152.645 105.162H153.213L153.483 102.977H152.645V105.162Z" fill="#A0616A"/>
<path d="M152.499 104.977L153.618 104.977C153.712 104.977 153.804 104.995 153.891 105.031C153.977 105.067 154.056 105.119 154.122 105.185C154.188 105.251 154.241 105.33 154.277 105.416C154.313 105.502 154.331 105.595 154.331 105.688V105.711L152.499 105.711L152.499 104.977Z" fill="#28282F"/>
<path d="M150.744 105.162H151.313L151.583 102.977H150.744V105.162Z" fill="#A0616A"/>
<path d="M150.6 104.977L151.719 104.977C151.812 104.977 151.905 104.995 151.991 105.031C152.078 105.067 152.157 105.119 152.223 105.185C152.289 105.251 152.342 105.33 152.377 105.416C152.413 105.502 152.432 105.595 152.432 105.688V105.711L150.6 105.711L150.6 104.977Z" fill="#28282F"/>
<path d="M150.623 104.494C150.584 104.449 150.562 104.393 150.562 104.334C150.426 102.944 150.795 95.6395 151.646 95.0158L151.651 95.0107L154.144 94.5815L154.19 94.6278C154.194 94.6922 154.647 101.095 153.396 104.363C153.38 104.402 153.354 104.435 153.319 104.459C153.284 104.482 153.243 104.495 153.201 104.495H152.704C152.675 104.495 152.647 104.489 152.62 104.477C152.594 104.466 152.57 104.449 152.551 104.428C152.531 104.407 152.516 104.382 152.507 104.355C152.497 104.328 152.494 104.299 152.496 104.271L152.899 98.152C152.9 98.1345 152.895 98.1171 152.884 98.1033C152.873 98.0896 152.857 98.0805 152.84 98.0779C152.822 98.0753 152.804 98.0795 152.79 98.0895C152.775 98.0995 152.765 98.1146 152.761 98.1318L151.627 104.342C151.617 104.386 151.594 104.425 151.56 104.454C151.526 104.484 151.483 104.502 151.439 104.505L150.785 104.553C150.78 104.554 150.775 104.554 150.77 104.554C150.715 104.554 150.662 104.532 150.623 104.494Z" fill="#28282F"/>
<path d="M153.903 90.8361C154.532 90.8361 155.041 90.3279 155.041 89.701C155.041 89.0741 154.532 88.5659 153.903 88.5659C153.274 88.5659 152.765 89.0741 152.765 89.701C152.765 90.3279 153.274 90.8361 153.903 90.8361Z" fill="#A0616A"/>
<path d="M151.161 96.0101C151.113 95.9613 151.086 95.896 151.084 95.8276L151.549 93.6574C151.178 92.0861 151.672 91.7915 152.229 91.4937L152.225 91.4919L152.458 90.864C152.465 90.8361 152.479 90.8101 152.497 90.788C152.516 90.7658 152.539 90.7481 152.565 90.7359C152.592 90.7238 152.62 90.7176 152.649 90.7178C152.678 90.718 152.707 90.7245 152.733 90.737L153.919 91.3656C153.973 91.3956 154.012 91.4451 154.03 91.5038C154.05 91.566 154.048 91.6332 154.026 91.6946L153.938 91.931C154.165 92.2328 154.515 93.4264 154.144 93.8885L154.424 95.4287C154.43 95.4854 154.416 95.5423 154.384 95.5897C154.352 95.6371 154.305 95.6718 154.25 95.6879L151.327 96.062C151.316 96.0643 151.304 96.0654 151.292 96.0654C151.243 96.0647 151.196 96.0449 151.161 96.0101Z" fill="#5752EA"/>
<path d="M155.417 93.5211C155.398 93.5386 155.381 93.5576 155.365 93.5778L153.072 93.4198L152.826 92.9199L152.021 93.1915L152.371 94.1186C152.399 94.1935 152.451 94.2573 152.518 94.3003C152.586 94.3434 152.666 94.3633 152.746 94.3573L155.353 94.1601C155.411 94.2401 155.492 94.3006 155.585 94.3337C155.678 94.3667 155.779 94.3707 155.874 94.3452C155.97 94.3196 156.055 94.2657 156.119 94.1906C156.183 94.1155 156.222 94.0228 156.232 93.9247C156.242 93.8267 156.222 93.728 156.174 93.6418C156.126 93.5556 156.053 93.486 155.964 93.4422C155.876 93.3983 155.776 93.3824 155.678 93.3965C155.581 93.4106 155.489 93.4541 155.417 93.5211Z" fill="#A0616A"/>
<path d="M152.987 93.4279L151.988 93.7597C151.959 93.7692 151.929 93.7724 151.9 93.7692C151.87 93.7659 151.841 93.7563 151.815 93.741C151.79 93.7257 151.767 93.7051 151.75 93.6805C151.733 93.6559 151.722 93.6279 151.717 93.5985L151.535 92.5672C151.487 92.4218 151.499 92.2635 151.568 92.127C151.637 91.9905 151.758 91.887 151.904 91.8391C152.049 91.7912 152.208 91.8029 152.345 91.8716C152.482 91.9403 152.586 92.0603 152.635 92.2055L153.108 93.1367C153.121 93.1634 153.129 93.1927 153.13 93.2225C153.131 93.2524 153.126 93.2821 153.114 93.3098C153.103 93.3374 153.086 93.3623 153.064 93.3827C153.042 93.4031 153.016 93.4185 152.987 93.4279Z" fill="#5752EA"/>
<path d="M153.264 88.8047C153.776 88.8047 154.191 88.3909 154.191 87.8804C154.191 87.3699 153.776 86.9561 153.264 86.9561C152.752 86.9561 152.337 87.3699 152.337 87.8804C152.337 88.3909 152.752 88.8047 153.264 88.8047Z" fill="#28282F"/>
<path d="M154.981 89.8413C155.071 89.8592 155.164 89.8514 155.249 89.8189C155.293 89.7942 155.33 89.7596 155.357 89.718C155.385 89.6764 155.403 89.6288 155.408 89.5792C155.581 88.4349 154.605 88.529 154.49 88.4795C154.417 88.4369 154.349 88.3871 154.286 88.331C154.123 88.2411 153.938 88.2004 153.753 88.214C153.534 88.1938 153.313 88.2208 153.105 88.293C152.924 88.3776 152.774 88.5158 152.674 88.6888C152.576 88.8611 152.504 89.0469 152.461 89.2403C152.393 89.4591 152.38 89.6915 152.425 89.9164C152.472 90.0842 152.571 90.2331 152.707 90.3421C152.844 90.4511 153.011 90.5149 153.186 90.5245C153.158 90.3899 153.175 90.2498 153.235 90.126C153.294 90.0021 153.394 89.9014 153.517 89.8393C153.712 89.7434 153.935 89.7169 154.148 89.7644C154.286 89.7923 154.426 89.8097 154.566 89.8164C154.704 89.8215 154.87 89.8296 154.981 89.8413Z" fill="#28282F"/>
<path d="M244.064 105.387C244.065 104.175 244.549 103.012 245.409 102.155C246.269 101.298 247.436 100.816 248.652 100.816C249.867 100.816 251.034 101.298 251.894 102.155C252.754 103.012 253.238 104.175 253.239 105.387" fill="#E9E9EC"/>
<path d="M248.651 105.388C248.618 105.388 248.587 105.374 248.564 105.351C248.54 105.328 248.527 105.297 248.527 105.264V102.853C248.527 102.82 248.54 102.789 248.564 102.766C248.587 102.743 248.618 102.729 248.651 102.729C248.684 102.729 248.716 102.743 248.739 102.766C248.762 102.789 248.775 102.82 248.775 102.853V105.264C248.775 105.297 248.762 105.328 248.739 105.351C248.716 105.374 248.684 105.388 248.651 105.388Z" fill="#A7A5B9"/>
<path d="M248.652 104.559C248.622 104.559 248.593 104.548 248.571 104.529L247.083 103.256C247.071 103.245 247.06 103.232 247.053 103.218C247.045 103.203 247.041 103.187 247.039 103.171C247.038 103.155 247.04 103.139 247.045 103.123C247.05 103.107 247.058 103.093 247.069 103.081C247.08 103.068 247.093 103.058 247.107 103.051C247.122 103.043 247.138 103.039 247.154 103.038C247.171 103.037 247.187 103.039 247.202 103.044C247.218 103.049 247.232 103.057 247.245 103.068L248.732 104.341C248.752 104.358 248.765 104.38 248.772 104.404C248.778 104.429 248.777 104.455 248.768 104.478C248.759 104.502 248.743 104.522 248.722 104.537C248.702 104.551 248.677 104.559 248.652 104.559Z" fill="#A7A5B9"/>
<path d="M258.197 105.387C258.198 104.175 258.682 103.012 259.542 102.155C260.402 101.298 261.568 100.816 262.784 100.816C264 100.816 265.166 101.298 266.027 102.155C266.887 103.012 267.37 104.175 267.371 105.387" fill="#E9E9EC"/>
<path d="M262.784 105.388C262.751 105.388 262.72 105.374 262.696 105.351C262.673 105.328 262.66 105.297 262.66 105.264V102.853C262.66 102.82 262.673 102.789 262.696 102.766C262.72 102.743 262.751 102.729 262.784 102.729C262.817 102.729 262.849 102.743 262.872 102.766C262.895 102.789 262.908 102.82 262.908 102.853V105.264C262.908 105.297 262.895 105.328 262.872 105.351C262.849 105.374 262.817 105.388 262.784 105.388Z" fill="#A7A5B9"/>
<path d="M262.784 104.559C262.755 104.559 262.726 104.548 262.704 104.529L261.216 103.256C261.203 103.245 261.193 103.232 261.186 103.218C261.178 103.203 261.174 103.188 261.172 103.171C261.171 103.155 261.173 103.139 261.178 103.123C261.183 103.107 261.191 103.093 261.202 103.081C261.212 103.068 261.225 103.058 261.24 103.051C261.255 103.043 261.271 103.039 261.287 103.038C261.303 103.037 261.32 103.039 261.335 103.044C261.351 103.049 261.365 103.057 261.378 103.068L262.865 104.342C262.884 104.358 262.898 104.38 262.904 104.404C262.911 104.429 262.91 104.455 262.901 104.478C262.892 104.502 262.876 104.522 262.855 104.537C262.834 104.551 262.81 104.559 262.784 104.559Z" fill="#A7A5B9"/>
</g>
<defs>
<clipPath id="clip0_588_7927">
<rect width="280" height="120" fill="white"/>
</clipPath>
</defs>
</svg>
