<svg width="101" height="71" viewBox="0 0 101 71" fill="none" xmlns="http://www.w3.org/2000/svg">
<path d="M95.9929 70H5.00714C3.94476 69.9988 2.92624 69.5752 2.17502 68.8221C1.4238 68.069 1.00123 67.0479 1 65.9829V5.01712C1.00122 3.95209 1.4238 2.93104 2.17502 2.17794C2.92624 1.42485 3.94476 1.00123 5.00714 1H95.9929C97.0552 1.00127 98.0737 1.42491 98.8249 2.17799C99.5761 2.93107 99.9987 3.9521 100 5.01712V65.9829C99.9987 67.0479 99.5761 68.0689 98.8249 68.822C98.0737 69.5751 97.0552 69.9987 95.9929 70Z" fill="white"/>
<path d="M19.9746 26.9929C19.2286 26.9929 18.4995 26.7712 17.8793 26.3557C17.2591 25.9403 16.7757 25.3498 16.4902 24.6589C16.2048 23.9681 16.1301 23.2079 16.2756 22.4745C16.4211 21.7411 16.7803 21.0674 17.3077 20.5386C17.8352 20.0099 18.5072 19.6498 19.2388 19.5039C19.9704 19.358 20.7287 19.4329 21.4178 19.7191C22.107 20.0052 22.696 20.4898 23.1104 21.1116C23.5248 21.7333 23.746 22.4643 23.746 23.2121C23.7448 24.2145 23.3471 25.1755 22.6401 25.8843C21.9331 26.5931 20.9744 26.9918 19.9746 26.9929Z" fill="#E5E3FC"/>
<path d="M19.9746 39.2806C19.2286 39.2806 18.4995 39.0588 17.8793 38.6434C17.2591 38.2279 16.7757 37.6375 16.4902 36.9466C16.2048 36.2557 16.1301 35.4956 16.2756 34.7621C16.4211 34.0287 16.7803 33.3551 17.3077 32.8263C17.8352 32.2975 18.5072 31.9375 19.2388 31.7916C19.9704 31.6457 20.7287 31.7206 21.4178 32.0067C22.107 32.2929 22.696 32.7775 23.1104 33.3992C23.5248 34.021 23.746 34.752 23.746 35.4997C23.7448 36.5021 23.3471 37.4631 22.6401 38.1719C21.9331 38.8807 20.9744 39.2794 19.9746 39.2806Z" fill="#C6C4F8"/>
<path d="M19.9746 51.5683C19.2286 51.5683 18.4995 51.3465 17.8793 50.9311C17.2591 50.5156 16.7757 49.9251 16.4902 49.2343C16.2048 48.5434 16.1301 47.7832 16.2756 47.0498C16.4211 46.3164 16.7803 45.6427 17.3077 45.114C17.8352 44.5852 18.5072 44.2252 19.2388 44.0793C19.9704 43.9334 20.7287 44.0082 21.4178 44.2944C22.107 44.5806 22.696 45.0652 23.1104 45.6869C23.5248 46.3087 23.746 47.0397 23.746 47.7874C23.7448 48.7898 23.3471 49.7508 22.6401 50.4596C21.9331 51.1684 20.9744 51.5671 19.9746 51.5683Z" fill="#9996F2"/>
<path d="M37.8885 20.1402C37.0758 20.1402 36.2964 20.4638 35.7217 21.0399C35.1471 21.616 34.8242 22.3974 34.8242 23.2121C34.8242 24.0268 35.1471 24.8082 35.7217 25.3843C36.2964 25.9604 37.0758 26.284 37.8885 26.284H81.7314C82.5441 26.284 83.3235 25.9604 83.8981 25.3843C84.4728 24.8082 84.7956 24.0268 84.7956 23.2121C84.7956 22.3974 84.4728 21.616 83.8981 21.0399C83.3235 20.4638 82.5441 20.1402 81.7314 20.1402H37.8885Z" fill="#E5E3FC"/>
<path d="M37.8885 32.4279C37.0758 32.4279 36.2964 32.7515 35.7217 33.3276C35.1471 33.9037 34.8242 34.6851 34.8242 35.4998C34.8242 36.3145 35.1471 37.0959 35.7217 37.6719C36.2964 38.248 37.0758 38.5717 37.8885 38.5717H81.7314C82.5441 38.5717 83.3235 38.248 83.8981 37.6719C84.4728 37.0959 84.7956 36.3145 84.7956 35.4998C84.7956 34.6851 84.4728 33.9037 83.8981 33.3276C83.3235 32.7515 82.5441 32.4279 81.7314 32.4279H37.8885Z" fill="#C6C4F8"/>
<path d="M37.8885 44.7155C37.0758 44.7155 36.2964 45.0392 35.7217 45.6153C35.1471 46.1914 34.8242 46.9727 34.8242 47.7874C34.8242 48.6022 35.1471 49.3835 35.7217 49.9596C36.2964 50.5357 37.0758 50.8594 37.8885 50.8594H81.7314C82.5441 50.8594 83.3235 50.5357 83.8981 49.9596C84.4728 49.3835 84.7956 48.6022 84.7956 47.7874C84.7956 46.9727 84.4728 46.1914 83.8981 45.6153C83.3235 45.0392 82.5441 44.7155 81.7314 44.7155H37.8885Z" fill="#9996F2"/>
</svg>
