<svg width="79" height="92" viewBox="0 0 79 92" fill="none" xmlns="http://www.w3.org/2000/svg">
<path d="M53.4815 44.4808H28.1945C27.6189 44.4791 27.0634 44.2694 26.6304 43.8903L16.2148 34.7078C15.8572 34.3921 15.3965 34.218 14.9194 34.2183H5.93066V3.22806C5.93133 2.63734 6.16638 2.07102 6.58424 1.65332C7.00211 1.23562 7.56866 1.00067 8.15961 1H51.2526C51.8435 1.00067 52.4101 1.23562 52.828 1.65332C53.2458 2.07102 53.4809 2.63734 53.4815 3.22806L53.4815 44.4808Z" fill="#E5E3FC"/>
<path d="M16.2652 15.3812C18.8764 15.3812 20.9932 13.2652 20.9932 10.655C20.9932 8.04482 18.8764 5.92883 16.2652 5.92883C13.6539 5.92883 11.5371 8.04482 11.5371 10.655C11.5371 13.2652 13.6539 15.3812 16.2652 15.3812Z" fill="white"/>
<path d="M34.6366 8.12317H25.8559C25.6947 8.12317 25.5401 8.18719 25.4261 8.30115C25.3121 8.4151 25.248 8.56966 25.248 8.73082C25.248 8.89198 25.3121 9.04654 25.4261 9.16049C25.5401 9.27445 25.6947 9.33847 25.8559 9.33847H34.6366C34.7979 9.33847 34.9525 9.27445 35.0665 9.16049C35.1805 9.04654 35.2445 8.89198 35.2445 8.73082C35.2445 8.56966 35.1805 8.4151 35.0665 8.30115C34.9525 8.18719 34.7979 8.12317 34.6366 8.12317Z" fill="white"/>
<path d="M47.3835 11.9716H25.7398C25.4682 11.9716 25.248 12.2443 25.248 12.5792C25.248 12.9141 25.4682 13.1869 25.7398 13.1869H47.3835C47.6551 13.1869 47.8752 12.9141 47.8752 12.5792C47.8752 12.2443 47.6551 11.9716 47.3835 11.9716Z" fill="white"/>
<path d="M45.6835 20.1073H13.7299C13.4705 20.1073 13.2598 20.3801 13.2598 20.715C13.2598 21.0498 13.4705 21.3226 13.7299 21.3226H45.6835C45.9429 21.3226 46.1536 21.0498 46.1536 20.715C46.1536 20.3801 45.9429 20.1073 45.6835 20.1073Z" fill="white"/>
<path d="M45.6835 23.8882H13.7299C13.4705 23.8882 13.2598 24.161 13.2598 24.4958C13.2598 24.8307 13.4705 25.1035 13.7299 25.1035H45.6835C45.9429 25.1035 46.1536 24.8307 46.1536 24.4958C46.1536 24.161 45.9429 23.8882 45.6835 23.8882Z" fill="white"/>
<path d="M45.6835 27.6692H13.7299C13.4705 27.6692 13.2598 27.942 13.2598 28.2768C13.2598 28.6117 13.4705 28.8845 13.7299 28.8845H45.6835C45.9429 28.8845 46.1536 28.6117 46.1536 28.2768C46.1536 27.942 45.9429 27.6692 45.6835 27.6692Z" fill="white"/>
<path d="M45.6835 31.4501H13.7299C13.4705 31.4501 13.2598 31.7228 13.2598 32.0577C13.2598 32.3926 13.4705 32.6654 13.7299 32.6654H45.6835C45.9429 32.6654 46.1536 32.3926 46.1536 32.0577C46.1536 31.7228 45.9429 31.4501 45.6835 31.4501Z" fill="white"/>
<path d="M74.42 44.4808H28.1944C27.7342 44.4816 27.2839 44.3471 26.8995 44.0942L26.8691 44.0742V12.5453C26.8698 11.9546 27.1049 11.3883 27.5227 10.9706C27.9406 10.5529 28.5071 10.3179 29.0981 10.3173H72.1911C72.782 10.3179 73.3486 10.5529 73.7664 10.9706C74.1843 11.3883 74.4193 11.9546 74.42 12.5453L74.42 44.4808Z" fill="#C6C4F8"/>
<path d="M37.2037 24.6983C39.8149 24.6983 41.9317 22.5823 41.9317 19.9721C41.9317 17.362 39.8149 15.246 37.2037 15.246C34.5924 15.246 32.4756 17.362 32.4756 19.9721C32.4756 22.5823 34.5924 24.6983 37.2037 24.6983Z" fill="white"/>
<path d="M55.5751 17.4403H46.7944C46.6332 17.4403 46.4786 17.5043 46.3646 17.6183C46.2506 17.7322 46.1865 17.8868 46.1865 18.048C46.1865 18.2091 46.2506 18.3637 46.3646 18.4776C46.4786 18.5916 46.6332 18.6556 46.7944 18.6556H55.5751C55.7363 18.6556 55.891 18.5916 56.005 18.4776C56.119 18.3637 56.183 18.2091 56.183 18.048C56.183 17.8868 56.119 17.7322 56.005 17.6183C55.891 17.5043 55.7363 17.4403 55.5751 17.4403Z" fill="white"/>
<path d="M68.322 21.2889H46.6783C46.4067 21.2889 46.1865 21.5617 46.1865 21.8966C46.1865 22.2315 46.4067 22.5042 46.6783 22.5042H68.322C68.5935 22.5042 68.8137 22.2315 68.8137 21.8966C68.8137 21.5617 68.5935 21.2889 68.322 21.2889Z" fill="white"/>
<path d="M66.622 29.4247H34.6683C34.409 29.4247 34.1982 29.6975 34.1982 30.0323C34.1982 30.3672 34.409 30.64 34.6683 30.64H66.622C66.8813 30.64 67.0921 30.3672 67.0921 30.0323C67.0921 29.6975 66.8813 29.4247 66.622 29.4247Z" fill="white"/>
<path d="M66.622 33.2057H34.6683C34.409 33.2057 34.1982 33.4785 34.1982 33.8133C34.1982 34.1482 34.409 34.421 34.6683 34.421H66.622C66.8813 34.421 67.0921 34.1482 67.0921 33.8133C67.0921 33.4785 66.8813 33.2057 66.622 33.2057Z" fill="white"/>
<path d="M66.622 36.9866H34.6683C34.409 36.9866 34.1982 37.2593 34.1982 37.5942C34.1982 37.9291 34.409 38.2019 34.6683 38.2019H66.622C66.8813 38.2019 67.0921 37.9291 67.0921 37.5942C67.0921 37.2593 66.8813 36.9866 66.622 36.9866Z" fill="white"/>
<path d="M66.622 40.7675H34.6683C34.409 40.7675 34.1982 41.0402 34.1982 41.3751C34.1982 41.71 34.409 41.9828 34.6683 41.9828H66.622C66.8813 41.9828 67.0921 41.71 67.0921 41.3751C67.0921 41.0402 66.8813 40.7675 66.622 40.7675Z" fill="white"/>
<path d="M75.7035 44.1433H28.1945C27.7378 44.1438 27.2945 43.9896 26.9368 43.7058C26.9085 43.6842 26.8814 43.6612 26.8544 43.6369L22.8329 40.0923L16.4379 34.4546C16.0187 34.0846 15.4787 33.8805 14.9194 33.8807H3.29649C2.68769 33.8816 2.10406 34.1237 1.67358 34.554C1.24309 34.9844 1.00086 35.5678 1 36.1763V88.7044C1.00086 89.313 1.24309 89.8964 1.67358 90.3267C2.10406 90.757 2.68769 90.9991 3.29649 91H75.7035C76.3123 90.9991 76.8959 90.757 77.3264 90.3267C77.7569 89.8964 77.9991 89.313 78 88.7044V46.4389C77.9991 45.8303 77.7569 45.2469 77.3264 44.8166C76.8959 44.3863 76.3123 44.1442 75.7035 44.1433ZM77.7298 88.7044C77.7292 89.2414 77.5155 89.7562 77.1356 90.1359C76.7557 90.5156 76.2407 90.7293 75.7035 90.7299H3.29649C2.75928 90.7293 2.24426 90.5156 1.86439 90.1359C1.48453 89.7562 1.27083 89.2414 1.27018 88.7044V36.1763C1.27083 35.6393 1.48453 35.1245 1.86439 34.7448C2.24426 34.3651 2.75928 34.1515 3.29649 34.1508H14.9194C15.413 34.1504 15.8896 34.3305 16.2595 34.6572L22.4249 40.0923L26.6748 43.8395C27.0954 44.2079 27.6352 44.4117 28.1945 44.4134H75.7035C76.2407 44.414 76.7557 44.6276 77.1356 45.0073C77.5155 45.3871 77.7292 45.9019 77.7298 46.4389V88.7044Z" fill="#8C8AA0"/>
</svg>
