<svg width="200" height="80" viewBox="0 0 200 80" fill="none" xmlns="http://www.w3.org/2000/svg">
<path d="M23.0015 48.9075L24.194 40.4324H20.5L21.748 31.5247H23.5395C25.1702 31.5247 26.0909 30.7094 26.3128 29.0787L26.9672 24.4585H36.2022L35.226 31.5192H44.2446L42.9967 40.4269H33.978L32.7855 48.791C32.6746 49.7173 33.2182 50.3107 34.1444 50.3107C35.1206 50.3107 35.8306 49.4954 36.0469 48.0311H44.7383C43.8175 54.8755 40.0126 59.2184 32.7356 59.2184C26.0521 59.2184 22.0863 55.469 23.0126 48.8964L23.0015 48.9075Z" fill="white"/>
<path d="M46.4686 44.2874C47.6112 36.1396 53.5848 30.8704 60.5401 30.8704C63.746 30.8704 66.3529 31.8466 68.1444 33.5327L70.0469 20.1157H79.8254L75.9705 47.876C75.8097 49.1794 76.3532 49.7784 77.6012 49.7784H78.2002L76.8413 59.2297H74.179C70.485 59.2297 67.9836 58.198 66.7356 56.1902C64.5059 58.5253 61.7382 59.8842 58.5878 59.8842C50.329 59.8842 45.2262 53.1507 46.4742 44.2929L46.4686 44.2874ZM66.4028 46.1344L66.4583 45.5908C66.7855 42.4959 64.883 40.3217 61.7881 40.3217C59.1258 40.3217 56.8462 42.3295 56.5189 44.9419C56.0863 48.1478 58.0941 50.4274 61.2445 50.4274C63.746 50.4274 65.9702 48.5804 66.4028 46.1344Z" fill="white"/>
<path d="M84.3289 31.5251H94.1074L93.8356 33.6439C96.0653 31.7969 98.5613 30.8706 101.384 30.8706C104.918 30.8706 107.524 32.285 108.878 34.9972C111.54 32.2794 114.746 30.8706 118.44 30.8706C124.364 30.8706 127.675 34.8363 126.699 42.1134L125.939 47.8706C125.778 49.1741 126.322 49.7731 127.57 49.7731H128.169L126.81 59.2243H124.147C117.736 59.2243 114.968 56.1849 115.839 50.0449L116.709 44.0158C117.037 41.7362 115.839 40.3219 113.775 40.3219C111.601 40.3219 109.921 41.6807 109.427 43.6886L107.253 59.2243H97.4741L99.6484 44.0158C99.9756 41.7362 98.7776 40.3219 96.7143 40.3219C94.651 40.3219 92.9648 41.5698 92.4213 43.5277L90.1916 59.2243H80.4131L84.3234 31.5196L84.3289 31.5251Z" fill="white"/>
<path d="M130.716 44.2874C131.858 36.1396 137.832 30.8704 144.787 30.8704C147.993 30.8704 150.6 31.8466 152.391 33.5327L154.294 20.1157H164.072L160.218 47.876C160.057 49.1794 160.6 49.7784 161.848 49.7784H162.447L161.088 59.2297H158.426C154.732 59.2297 152.231 58.198 150.983 56.1902C148.753 58.5253 145.985 59.8842 142.835 59.8842C134.576 59.8842 129.473 53.1507 130.721 44.2929L130.716 44.2874ZM150.655 46.1344L150.711 45.5908C151.038 42.4959 149.136 40.3217 146.041 40.3217C143.378 40.3217 141.099 42.3295 140.772 44.9419C140.339 48.1478 142.347 50.4274 145.497 50.4274C147.999 50.4274 150.223 48.5804 150.655 46.1344Z" fill="white"/>
<path d="M173.156 59.2243C177.212 59.2243 180.5 55.9364 180.5 51.8807C180.5 47.8249 177.212 44.5371 173.156 44.5371C169.1 44.5371 165.812 47.8249 165.812 51.8807C165.812 55.9364 169.1 59.2243 173.156 59.2243Z" fill="white"/>
</svg>
