<svg width="88" height="62" viewBox="0 0 88 62" fill="none" xmlns="http://www.w3.org/2000/svg">
<path d="M87 7.31592H1V61H87V7.31592Z" fill="#E9E9EC"/>
<path d="M22.5195 17.658H6.76855V27.9211H22.5195V17.658Z" fill="white"/>
<path d="M42.0898 17.658H26.3389V27.9211H42.0898V17.658Z" fill="white"/>
<path d="M61.6621 17.658H45.9111V27.9211H61.6621V17.658Z" fill="white"/>
<path d="M81.2343 17.658H65.4834V27.9211H81.2343V17.658Z" fill="white"/>
<path d="M22.5195 32.1841H6.76855V42.4472H22.5195V32.1841Z" fill="white"/>
<path d="M42.0898 32.1841H26.3389V42.4472H42.0898V32.1841Z" fill="white"/>
<path d="M61.6621 32.1841H45.9111V42.4472H61.6621V32.1841Z" fill="white"/>
<path d="M81.2343 32.1841H65.4834V42.4472H81.2343V32.1841Z" fill="white"/>
<path d="M22.5195 46.7104H6.76855V56.9736H22.5195V46.7104Z" fill="white"/>
<path d="M42.0898 46.7104H26.3389V56.9736H42.0898V46.7104Z" fill="white"/>
<path d="M61.6621 46.7104H45.9111V56.9736H61.6621V46.7104Z" fill="white"/>
<path d="M81.2343 46.7104H65.4834V56.9736H81.2343V46.7104Z" fill="white"/>
<path d="M23.5238 13.6318C24.8286 13.6318 25.8864 12.5715 25.8864 11.2634C25.8864 9.95539 24.8286 8.89502 23.5238 8.89502C22.2189 8.89502 21.1611 9.95539 21.1611 11.2634C21.1611 12.5715 22.2189 13.6318 23.5238 13.6318Z" fill="white"/>
<path d="M62.5872 13.6318C63.8921 13.6318 64.9499 12.5715 64.9499 11.2634C64.9499 9.95539 63.8921 8.89502 62.5872 8.89502C61.2824 8.89502 60.2246 9.95539 60.2246 11.2634C60.2246 12.5715 61.2824 13.6318 62.5872 13.6318Z" fill="white"/>
<path d="M24.4692 1H22.5791V11.8947H24.4692V1Z" fill="#E9E9EC"/>
<path d="M63.5317 1H61.6416V11.8947H63.5317V1Z" fill="#E9E9EC"/>
<path d="M76.9191 22.7897C76.9183 23.6472 76.6088 24.4755 76.0476 25.1226C75.4864 25.7697 74.711 26.1919 73.8641 26.3119C73.0172 26.4318 72.1555 26.2413 71.4374 25.7755C70.7193 25.3096 70.1931 24.5996 69.9554 23.7759C69.7176 22.9522 69.7844 22.0702 70.1434 21.292C70.5024 20.5137 71.1295 19.8914 71.9095 19.5395C72.6895 19.1876 73.57 19.1297 74.3892 19.3764C75.2084 19.6231 75.9113 20.1578 76.3686 20.8824C76.7288 21.453 76.9198 22.1145 76.9191 22.7897Z" fill="#C6C4F8"/>
<path d="M76.3683 20.882L72.8621 24.3961C72.6418 24.0541 71.4141 22.4648 71.4141 22.4648C71.5714 22.3054 71.7393 22.1568 71.9166 22.0201L72.9347 23.3808L75.9577 20.3503C76.111 20.5142 76.2485 20.6922 76.3683 20.882Z" fill="white"/>
<path d="M37.7756 37.3159C37.7747 38.1733 37.4653 39.0017 36.904 39.6487C36.3428 40.2958 35.5675 40.7181 34.7205 40.838C33.8736 40.9579 33.0119 40.7675 32.2938 40.3016C31.5758 39.8357 31.0495 39.1257 30.8118 38.302C30.5741 37.4783 30.6409 36.5963 30.9999 35.8181C31.3589 35.0398 31.986 34.4176 32.766 34.0656C33.546 33.7137 34.4265 33.6558 35.2456 33.9025C36.0648 34.1492 36.7677 34.684 37.2251 35.4085C37.5853 35.9791 37.7762 36.6406 37.7756 37.3159Z" fill="#C6C4F8"/>
<path d="M37.2267 35.4082L33.7205 38.9222C33.5002 38.5802 32.2725 36.9909 32.2725 36.9909C32.4298 36.8315 32.5977 36.6829 32.775 36.5462L33.793 37.9069L36.8161 34.8765C36.9694 35.0403 37.1069 35.2183 37.2267 35.4082Z" fill="white"/>
<path d="M18.2043 37.3159C18.2035 38.1733 17.894 39.0017 17.3328 39.6487C16.7715 40.2958 15.9962 40.7181 15.1493 40.838C14.3023 40.958 13.4406 40.7675 12.7226 40.3016C12.0045 39.8357 11.4782 39.1257 11.2405 38.302C11.0028 37.4784 11.0696 36.5964 11.4286 35.8181C11.7876 35.0398 12.4147 34.4176 13.1947 34.0656C13.9747 33.7137 14.8552 33.6558 15.6744 33.9025C16.4936 34.1492 17.1964 34.684 17.6538 35.4085C18.014 35.9791 18.2049 36.6406 18.2043 37.3159Z" fill="#C6C4F8"/>
<path d="M17.6544 35.4082L14.1482 38.9222C13.9279 38.5802 12.7002 36.9909 12.7002 36.9909C12.8575 36.8315 13.0254 36.6829 13.2027 36.5462L14.2208 37.9069L17.2438 34.8765C17.3971 35.0403 17.5346 35.2183 17.6544 35.4082Z" fill="white"/>
</svg>
