<svg width="81" height="24" viewBox="0 0 81 24" fill="none" xmlns="http://www.w3.org/2000/svg">
<path d="M1.25802 16.4802L1.85774 12.218H0L0.627615 7.73826H1.52859C2.34868 7.73826 2.81172 7.32822 2.92329 6.50814L3.25244 4.18457H7.89679L7.40586 7.73548H11.9414L11.3138 12.2153H6.77825L6.17852 16.4217C6.12273 16.8875 6.3961 17.186 6.86192 17.186C7.35286 17.186 7.7099 16.7759 7.81869 16.0395H12.1897C11.7266 19.4816 9.81311 21.6657 6.15341 21.6657C2.79219 21.6657 0.797768 19.7801 1.2636 16.4747L1.25802 16.4802Z" fill="#28282F"/>
<path d="M13.06 14.1565C13.6347 10.0588 16.6388 7.40889 20.1367 7.40889C21.749 7.40889 23.06 7.89983 23.961 8.7478L24.9178 2.00024H29.8355L27.8969 15.9612C27.816 16.6167 28.0893 16.918 28.7169 16.918H29.0182L28.3348 21.6711H26.9959C25.1381 21.6711 23.8801 21.1523 23.2525 20.1425C22.1312 21.3168 20.7393 22.0002 19.1549 22.0002C15.0015 22.0002 12.4352 18.6139 13.0628 14.1592L13.06 14.1565ZM23.0851 15.0853L23.113 14.812C23.2776 13.2555 22.3208 12.162 20.7644 12.162C19.4254 12.162 18.279 13.1718 18.1144 14.4856C17.8969 16.0979 18.9066 17.2443 20.491 17.2443C21.749 17.2443 22.8676 16.3154 23.0851 15.0853Z" fill="#28282F"/>
<path d="M32.1002 7.73808H37.0179L36.8812 8.80364C38.0025 7.87477 39.2578 7.40894 40.6776 7.40894C42.4544 7.40894 43.7654 8.12023 44.4461 9.48425C45.785 8.11744 47.3972 7.40894 49.255 7.40894C52.2341 7.40894 53.8993 9.40335 53.4084 13.063L53.0262 15.9584C52.9454 16.614 53.2187 16.9152 53.8463 16.9152H54.1476L53.4642 21.6683H52.1253C48.9007 21.6683 47.5088 20.1398 47.9468 17.0519L48.3847 14.0198C48.5493 12.8734 47.9468 12.1621 46.9091 12.1621C45.8157 12.1621 44.9705 12.8455 44.7222 13.8552L43.6288 21.6683H38.711L39.8045 14.0198C39.9691 12.8734 39.3666 12.1621 38.3289 12.1621C37.2912 12.1621 36.4433 12.7897 36.1699 13.7743L35.0486 21.6683H30.1309L32.0974 7.7353L32.1002 7.73808Z" fill="#28282F"/>
<path d="M55.4282 14.1565C56.0028 10.0588 59.007 7.40889 62.5049 7.40889C64.1172 7.40889 65.4282 7.89983 66.3292 8.7478L67.2859 2.00024H72.2037L70.265 15.9612C70.1841 16.6167 70.4575 16.918 71.0851 16.918H71.3864L70.703 21.6711H69.364C67.5063 21.6711 66.2483 21.1523 65.6207 20.1425C64.4993 21.3168 63.1074 22.0002 61.5231 22.0002C57.3696 22.0002 54.8034 18.6139 55.431 14.1592L55.4282 14.1565ZM65.4561 15.0853L65.484 14.812C65.6486 13.2555 64.6918 12.162 63.1353 12.162C61.7964 12.162 60.65 13.1718 60.4854 14.4856C60.2678 16.0979 61.2776 17.2443 62.862 17.2443C64.12 17.2443 65.2385 16.3154 65.4561 15.0853Z" fill="#28282F"/>
<path d="M76.7723 21.6681C78.8119 21.6681 80.4654 20.0146 80.4654 17.9749C80.4654 15.9352 78.8119 14.2817 76.7723 14.2817C74.7326 14.2817 73.0791 15.9352 73.0791 17.9749C73.0791 20.0146 74.7326 21.6681 76.7723 21.6681Z" fill="#5752EA"/>
</svg>
