<svg width="163" height="218" viewBox="0 0 163 218" fill="none" xmlns="http://www.w3.org/2000/svg">
<g clip-path="url(#clip0_557_7686)">
<mask id="path-1-inside-1_557_7686" fill="white">
<path d="M0 32C0 14.3269 14.3269 0 32 0H131C148.673 0 163 14.3269 163 32V218H0V32Z"/>
</mask>
<path d="M0 32C0 14.3269 14.3269 0 32 0H131C148.673 0 163 14.3269 163 32V218H0V32Z" fill="white"/>
<rect x="16" y="27" width="49" height="6" rx="2" fill="#E9E9EC"/>
<rect x="16" y="39" width="51" height="9" rx="2" fill="#E9E9EC"/>
<rect x="16" y="93" width="13" height="8" rx="2" fill="#E9E9EC"/>
<rect x="16" y="104" width="19" height="5" rx="2" fill="#E9E9EC"/>
<rect x="16" y="54" width="24" height="24" rx="6" fill="#E9E9EC"/>
<rect x="70" y="54" width="24" height="24" rx="6" fill="#E9E9EC"/>
<rect x="97" y="54" width="24" height="24" rx="6" fill="#E9E9EC"/>
<rect x="124" y="54" width="24" height="24" rx="6" fill="#E9E9EC"/>
<rect x="43" y="54" width="24" height="24" rx="6" fill="#7570FA"/>
<rect x="151" y="54" width="24" height="24" rx="6" fill="#E9E9EC"/>
<rect x="16" y="116" width="131" height="78" rx="8" fill="#D3EEF1"/>
<rect opacity="0.6" x="23" y="125" width="54" height="8" rx="2" fill="white"/>
<rect opacity="0.6" x="23" y="136" width="41" height="6" rx="2" fill="white"/>
<rect opacity="0.6" x="34" y="150" width="69" height="6" rx="2" fill="white"/>
<rect opacity="0.6" x="34" y="164" width="95" height="6" rx="2" fill="white"/>
<rect opacity="0.6" x="34" y="178" width="83" height="6" rx="2" fill="white"/>
<g opacity="0.2">
<rect x="23" y="149" width="8" height="8" rx="4" fill="#130F7B" style="mix-blend-mode:color-burn"/>
</g>
<g opacity="0.2">
<rect x="23" y="163" width="8" height="8" rx="4" fill="#130F7B" style="mix-blend-mode:color-burn"/>
</g>
<g opacity="0.2">
<rect x="23" y="177" width="8" height="8" rx="4" fill="#130F7B" style="mix-blend-mode:color-burn"/>
</g>
<path d="M25.5 153L26.5607 154.061L28.6818 151.939" stroke="white" stroke-linecap="round" stroke-linejoin="round"/>
<path d="M25.5 167L26.5607 168.061L28.6818 165.939" stroke="white" stroke-linecap="round" stroke-linejoin="round"/>
<path d="M25.5 181L26.5607 182.061L28.6818 179.939" stroke="white" stroke-linecap="round" stroke-linejoin="round"/>
<rect x="16" y="198" width="131" height="78" rx="8" fill="#ADCBFD"/>
<rect opacity="0.6" x="23" y="207" width="54" height="8" rx="2" fill="white"/>
</g>
<path d="M-6 32C-6 11.0132 11.0132 -6 32 -6H131C151.987 -6 169 11.0132 169 32H157C157 17.6406 145.359 6 131 6H32C17.6406 6 6 17.6406 6 32H-6ZM163 218H0H163ZM-6 218V32C-6 11.0132 11.0132 -6 32 -6V6C17.6406 6 6 17.6406 6 32V218H-6ZM131 -6C151.987 -6 169 11.0132 169 32V218H157V32C157 17.6406 145.359 6 131 6V-6Z" fill="#DCDBE4" mask="url(#path-1-inside-1_557_7686)"/>
<defs>
<clipPath id="clip0_557_7686">
<path d="M0 32C0 14.3269 14.3269 0 32 0H131C148.673 0 163 14.3269 163 32V218H0V32Z" fill="white"/>
</clipPath>
</defs>
</svg>
